<?xml version="1.0" encoding="UTF-8"?>
<svg version="1.1" xmlns="http://www.w3.org/2000/svg" width="2000" height="2000">
<path d="M0 0 C0.66 0 1.32 0 2 0 C14.34529518 39.2238703 26.65804983 78.45773945 38.91098595 117.71056747 C40.21129968 121.87611503 41.51182966 126.04159503 42.8125 130.20703125 C43.06825428 131.02611465 43.32400856 131.84519806 43.58751297 132.68910217 C47.20734408 144.28031685 50.84024744 155.8673652 54.48394966 167.45109749 C55.24006247 169.85512285 55.99582171 172.25925906 56.75144958 174.66343689 C57.24111819 176.22134437 57.73078797 177.77925148 58.22045898 179.3371582 C58.57761443 180.4735085 58.57761443 180.4735085 58.94198513 181.63281536 C60.33831633 186.07451977 61.73723435 190.51539924 63.1380558 194.95568943 C63.99053448 197.65978417 64.84072722 200.36459352 65.69029236 203.06960487 C66.27033875 204.91382617 66.85333171 206.75711989 67.43640137 208.60038757 C67.77715698 209.68664932 68.1179126 210.77291107 68.46899414 211.89208984 C68.91548058 213.30885513 68.91548058 213.30885513 69.37098694 214.75424194 C70 217 70 217 70 219 C70.53850586 219.07404053 71.07701172 219.14808105 71.63183594 219.22436523 C159.82245624 231.75373003 241.02057389 272.36947535 325.3515625 344.4765625 C327.29626107 346.27379577 328.44537017 347.21536754 331 348 C333.44458404 347.0979324 335.47417051 346.16047971 337.734375 344.9140625 C338.37240051 344.57829193 339.01042603 344.24252136 339.66778564 343.89657593 C341.70347213 342.82086064 343.72648517 341.7234109 345.75 340.625 C347.12812914 339.8917667 348.50702759 339.15997738 349.88671875 338.4296875 C353.26696693 336.63642418 356.6360171 334.82357961 360 333 C361 336 361 336 359.8125 338.75561523 C359.214375 339.84559814 358.61625 340.93558105 358 342.05859375 C357.35411314 343.26103896 356.70828151 344.46351383 356.0625 345.66601562 C355.03207558 347.55504513 353.99763613 349.44179951 352.9609375 351.32739258 C351.9638232 353.14917179 350.98149381 354.97836486 350 356.80859375 C349.401875 357.89970459 348.80375 358.99081543 348.1875 360.11499023 C346.82397532 362.82145073 346.82397532 362.82145073 347.15283203 365.2019043 C348.68538722 368.45471956 351.38445922 370.83579105 353.875 373.375 C359.91578836 379.70328668 365.35625048 386.31525939 370.66162109 393.26318359 C371.99164395 394.98915634 373.3442373 396.69434895 374.70703125 398.39453125 C419.88246979 454.82133327 472.78355347 547.72303233 470 623 C470.6518074 623.17260345 471.30361481 623.34520691 471.97517395 623.52304077 C479.12772026 625.44218742 486.19806685 627.56702414 493.26171875 629.7890625 C494.44796341 630.160383 495.63420807 630.53170349 496.85639954 630.91427612 C499.43897591 631.72296092 502.02131438 632.53236191 504.60327148 633.34301758 C508.78891292 634.65714947 512.97544365 635.96843251 517.16210938 637.27929688 C521.67070287 638.69110182 526.17923219 640.10311021 530.68746948 641.51605225 C542.04645222 645.07605862 553.40739751 648.62975127 564.76953125 652.1796875 C565.59895422 652.43883123 566.42837719 652.69797497 567.28293419 652.96497154 C571.49773222 654.28180705 575.7125591 655.5985502 579.92739868 656.91525269 C587.51132048 659.28449474 595.09498583 661.6545574 602.67867088 664.02455711 C606.83524938 665.32353352 610.99184422 666.62245761 615.1484375 667.92138672 C616.79394539 668.43560766 618.4394532 668.94982885 620.08496094 669.46405029 C621.72330729 669.97603353 623.36165365 670.48801676 625 671 C626.21774109 671.38054409 626.21774109 671.38054409 627.46008301 671.76877594 C628.27021851 672.02194328 629.080354 672.27511063 629.91503906 672.53594971 C632.34418742 673.29505857 634.77333577 674.05416743 637.20248413 674.81327629 C638.38736923 675.18355289 638.38736923 675.18355289 639.59619141 675.56130981 C640.37891418 675.80591068 641.16163696 676.05051155 641.96807861 676.30252457 C642.74173767 676.54429302 643.51539673 676.78606148 644.3125 677.03515625 C647.33333333 677.97916667 650.35416667 678.92317708 653.375 679.8671875 C654.09861725 680.09331789 654.8222345 680.31944828 655.56777954 680.55243111 C659.84614563 681.88942051 659.84614563 681.88942051 664.12451172 683.22640991 C665.16502686 683.55157089 665.16502686 683.55157089 666.2265625 683.88330078 C666.90834061 684.09635644 667.59011871 684.3094121 668.29255676 684.52892399 C668.95913803 684.73723063 669.6257193 684.94553728 670.3125 685.16015625 C670.95825485 685.36195464 671.6040097 685.56375303 672.26933289 685.77166653 C672.89676895 685.9677403 673.52420502 686.16381407 674.1706543 686.36582947 C678.48331706 687.71353658 682.79597982 689.06124369 687.10864258 690.40895081 C687.73279053 690.60399704 688.35693848 690.79904327 689 691 C689 691.66 689 692.32 689 693 C653.58114753 704.19779864 618.15377567 715.36524537 582.66253281 726.33175278 C557.28819214 734.17271252 531.9315255 742.06827454 506.59658813 750.03570557 C504.13409857 750.80964041 501.67123245 751.5823654 499.20825195 752.35473633 C495.37249608 753.55776663 491.53773678 754.76391924 487.70377731 755.97266197 C486.29106533 756.41755226 484.87802635 756.86140565 483.4646492 757.30417824 C481.53817845 757.9079562 479.61304208 758.51598699 477.68798828 759.12426758 C476.06728928 759.6342907 476.06728928 759.6342907 474.41384888 760.15461731 C472.07896237 760.77649179 472.07896237 760.77649179 471 762 C470.66522829 763.71741691 470.38432792 765.44536454 470.125 767.17578125 C457.66203346 846.68801934 425.63219289 922.4917235 376 986 C375.29746094 986.90363281 374.59492187 987.80726563 373.87109375 988.73828125 C365.73625943 999.04240472 357.17508581 1008.94890385 348.21484375 1018.5390625 C345.90409068 1020.98753152 345.90409068 1020.98753152 344 1024 C344.45439453 1024.86802246 344.90878906 1025.73604492 345.37695312 1026.63037109 C347.05831725 1029.8448664 348.73431665 1033.06213275 350.40869141 1036.28027344 C351.13476363 1037.67394226 351.86229756 1039.06685056 352.59130859 1040.45898438 C353.63762511 1042.45766245 354.67869127 1044.45899747 355.71875 1046.4609375 C356.21091003 1047.39696304 356.21091003 1047.39696304 356.7130127 1048.35189819 C359 1052.77225659 359 1052.77225659 359 1055 C354.84015131 1054.07223528 351.27178087 1052.24473557 347.5 1050.3125 C346.07293689 1049.58980382 344.64585333 1048.867148 343.21875 1048.14453125 C342.51105469 1047.78439941 341.80335937 1047.42426758 341.07421875 1047.05322266 C338.05664246 1045.52099289 335.02845152 1044.01062046 332 1042.5 C330.33333333 1041.66666667 328.66666667 1040.83333333 327 1040 C326.33355469 1040.68964844 325.66710938 1041.37929687 324.98046875 1042.08984375 C319.5171231 1047.660164 313.97606068 1052.83147502 307.86328125 1057.69921875 C305.33657167 1059.72954882 302.86962032 1061.81444933 300.41625977 1063.93237305 C271.65156671 1088.68603568 238.80334615 1108.0292103 205 1125 C204.14051758 1125.43441406 203.28103516 1125.86882812 202.39550781 1126.31640625 C172.25708834 1141.4543111 140.0026616 1152.14335005 107.25 1159.9375 C106.08697357 1160.21608856 106.08697357 1160.21608856 104.90045166 1160.50030518 C93.34473414 1163.24560651 81.75064149 1165.28343991 70 1167 C69.84008575 1167.61120193 69.68017151 1168.22240387 69.51541138 1168.85212708 C67.28121487 1177.22841998 64.71437161 1185.49287298 62.1171875 1193.76171875 C61.62937752 1195.32007822 61.14175252 1196.8784956 60.65429688 1198.43696594 C59.61002772 1201.77434167 58.56451738 1205.11132495 57.51800537 1208.44799805 C55.85003573 1213.76614678 54.18481327 1219.08515323 52.52001953 1224.40429688 C50.48424834 1230.90815995 48.44784784 1237.4118253 46.41064262 1243.91523933 C42.70655263 1255.74019969 39.00792188 1267.56685935 35.3125 1279.39453125 C34.90771518 1280.69008721 34.90771518 1280.69008721 34.49475288 1282.01181602 C33.15048627 1286.31438154 31.80631383 1290.61697646 30.46218872 1294.91958618 C28.12036458 1302.41573637 25.77774146 1309.91163688 23.43516731 1317.40755272 C22.21048918 1321.32637915 20.98586188 1325.24522147 19.76123047 1329.1640625 C19.2931928 1330.66178393 18.82515488 1332.15950529 18.3571167 1333.65722656 C18.13101463 1334.38075317 17.90491257 1335.10427979 17.67195892 1335.84973145 C9.83597946 1360.92486572 9.83597946 1360.92486572 2 1386 C1.34 1386 0.68 1386 0 1386 C-11.09944686 1350.82408173 -22.19350765 1315.64654608 -33.1875 1280.4375 C-33.38763828 1279.79654388 -33.58777657 1279.15558777 -33.79397964 1278.49520874 C-35.6162859 1272.65882477 -37.43806715 1266.82227699 -39.25932312 1260.98556519 C-42.34228839 1251.10549029 -45.42822823 1241.22634722 -48.515625 1231.34765625 C-48.85846496 1230.25067319 -48.85846496 1230.25067319 -49.20823097 1229.13152885 C-50.34375301 1225.49824864 -51.47931521 1221.86498098 -52.61489868 1218.23171997 C-54.69012175 1211.59205541 -56.76496117 1204.95227097 -58.83984375 1198.3125 C-59.57145012 1195.97135364 -60.30305812 1193.63020778 -61.03466797 1191.2890625 C-63.35644531 1183.859375 -65.67822266 1176.4296875 -68 1169 C-68.84143555 1168.86537354 -69.68287109 1168.73074707 -70.54980469 1168.59204102 C-156.85908591 1154.5775453 -236.81862029 1121.76369053 -320.75 1053.4375 C-321.60875732 1052.70466797 -321.60875732 1052.70466797 -322.48486328 1051.95703125 C-325.44246286 1049.41102427 -328.28348876 1046.8022264 -331 1044 C-335.08659132 1045.26764357 -338.7477205 1046.79101493 -342.51171875 1048.8203125 C-343.51654297 1049.35527344 -344.52136719 1049.89023438 -345.55664062 1050.44140625 C-347.65622949 1051.57044281 -349.75518109 1052.70066519 -351.85351562 1053.83203125 C-352.85447266 1054.36441406 -353.85542969 1054.89679688 -354.88671875 1055.4453125 C-355.79639404 1055.93531738 -356.70606934 1056.42532227 -357.64331055 1056.93017578 C-360 1058 -360 1058 -363 1058 C-361.63213612 1054.38989626 -360.01592497 1051.06620432 -358.14453125 1047.69140625 C-357.60505859 1046.69689453 -357.06558594 1045.70238281 -356.50976562 1044.67773438 C-355.37719902 1042.59897289 -354.23391963 1040.52601273 -353.08007812 1038.45898438 C-352.54447266 1037.46318359 -352.00886719 1036.46738281 -351.45703125 1035.44140625 C-350.7141687 1034.09091187 -350.7141687 1034.09091187 -349.95629883 1032.71313477 C-348.79487057 1029.41802314 -349.17640254 1027.35192168 -350 1024 C-350.66 1024 -351.32 1024 -352 1024 C-353.375 1022.63671875 -353.375 1022.63671875 -355 1020.6875 C-357.88858397 1017.28352552 -360.84793678 1013.96917602 -363.875 1010.6875 C-415.49051514 953.949242 -451.27720844 882.65673869 -469.9375 808.5625 C-470.21839981 807.44900681 -470.21839981 807.44900681 -470.50497437 806.3130188 C-472.47733428 798.39707039 -474.16773203 790.51311872 -475.3125 782.43359375 C-475.4121254 781.75567276 -475.51175079 781.07775177 -475.61439514 780.37928772 C-476.07693621 777.19891014 -476.48436879 774.02877272 -476.80249023 770.83032227 C-477.41870738 765.05720455 -477.41870738 765.05720455 -480.69726562 760.5612793 C-483.42141102 759.3969748 -486.1232628 758.71522839 -489 758 C-490.34531629 757.5821809 -491.68715799 757.15307774 -493.02612305 756.71533203 C-497.23372521 755.34111062 -501.45723758 754.02473393 -505.68667603 752.71942139 C-508.73977875 751.77707324 -511.79131376 750.82978767 -514.8425293 749.88134766 C-518.29639795 748.80787694 -521.75038845 747.73480921 -525.20481873 746.66314697 C-540.36880846 741.95865748 -555.52162203 737.21839759 -570.67532349 732.480896 C-575.82496673 730.87100501 -580.97485301 729.26189234 -586.12475586 727.65283203 C-602.9472617 722.39638237 -619.76828703 717.13524645 -636.5859375 711.86328125 C-637.36243086 711.61987 -638.13892422 711.37645874 -638.93894768 711.12567139 C-646.30824464 708.81547556 -653.6773297 706.5046053 -661.04601288 704.19245243 C-663.06271516 703.55968607 -665.07946121 702.92705944 -667.09622192 702.29447937 C-669.51573252 701.53552245 -671.93515486 700.77628411 -674.35446167 700.01667786 C-681.89497715 697.65154248 -689.44452393 695.31689009 -697 693 C-697 692.34 -697 691.68 -697 691 C-662.94593109 680.28553182 -628.88973786 669.57808627 -594.8125 658.9375 C-594.17154388 658.73736172 -593.53058777 658.53722343 -592.87020874 658.33102036 C-591.57287428 657.92593031 -590.27553961 657.52084093 -588.97820473 657.11575222 C-585.71070771 656.09546944 -582.44323418 655.07511147 -579.17578125 654.0546875 C-578.52765095 653.85228014 -577.87952065 653.64987278 -577.21175003 653.44133186 C-556.77574055 647.05878065 -536.3475668 640.65118394 -515.91907024 634.24463558 C-512.6714077 633.22617098 -509.42360469 632.20816032 -506.17558289 631.19084167 C-500.98978003 629.56644429 -495.80461972 627.94040575 -490.625 626.29638672 C-489.86127075 626.0548436 -489.0975415 625.81330048 -488.31066895 625.56443787 C-486.41414823 624.96418746 -484.51854386 624.36104374 -482.62304688 623.75756836 C-480 623 -480 623 -478 623 C-477.9575415 622.2889209 -477.91508301 621.5778418 -477.87133789 620.84521484 C-477.31720366 612.94896221 -476.07731131 605.36347742 -474.4375 597.625 C-474.17283936 596.37114502 -473.90817871 595.11729004 -473.63549805 593.82543945 C-458.46086917 522.99776362 -428.15317451 457.39912687 -384 400 C-383.52820313 399.38253906 -383.05640625 398.76507812 -382.5703125 398.12890625 C-377.08361619 390.95982516 -371.42865958 384.08932412 -365.28515625 377.46875 C-362.63492815 374.60559759 -360.08221445 371.66847932 -357.54296875 368.70703125 C-356.10687189 367.11823548 -354.60172892 365.72992038 -353 364.3125 C-352.34 363.549375 -351.68 362.78625 -351 362 C-351.3525058 358.06964348 -352.83351106 355.06356435 -354.6875 351.62109375 C-355.22117187 350.61755859 -355.75484375 349.61402344 -356.3046875 348.58007812 C-356.86414063 347.54302734 -357.42359375 346.50597656 -358 345.4375 C-359.10808458 343.37579885 -360.2124151 341.31207446 -361.3125 339.24609375 C-361.80363281 338.33529053 -362.29476563 337.4244873 -362.80078125 336.48608398 C-363.85732066 334.29578659 -364.52853256 332.3743239 -365 330 C-361.51544292 331.3470964 -358.17676774 332.85274541 -354.83984375 334.53125 C-353.4022168 335.25248047 -353.4022168 335.25248047 -351.93554688 335.98828125 C-350.94619141 336.48714844 -349.95683594 336.98601562 -348.9375 337.5 C-347.94427734 337.99886719 -346.95105469 338.49773437 -345.92773438 339.01171875 C-344.08279207 339.93853825 -342.2382627 340.86618053 -340.39428711 341.79492188 C-338.26460733 342.86681944 -336.13306466 343.93485779 -334 345 C-333.10861328 344.07380859 -333.10861328 344.07380859 -332.19921875 343.12890625 C-327.00141384 337.81792985 -321.70867662 332.97436369 -315.8984375 328.3359375 C-313.36121276 326.29111217 -310.88069471 324.19444161 -308.4140625 322.06542969 C-279.64674044 297.31500808 -246.80360987 277.9709221 -213 261 C-212.14051758 260.56558594 -211.28103516 260.13117188 -210.39550781 259.68359375 C-180.45936731 244.64728945 -148.40383589 233.9676013 -115.875 226.1875 C-115.14234924 226.01031433 -114.40969849 225.83312866 -113.65484619 225.65057373 C-98.57453612 222.03542219 -83.28987004 219.54034583 -68 217 C-56.18979216 179.73986876 -44.41277815 142.47052225 -32.875 105.125 C-25.19001553 80.25021432 -17.43921307 55.39701267 -9.625 30.5625 C-9.37915916 29.78115944 -9.13331833 28.99981888 -8.88002777 28.19480133 C-5.922509 18.79574915 -2.96260255 9.39745108 0 0 Z M-315.87109375 341.0625 C-317.90943266 342.91757541 -320.00149192 344.6812786 -322.125 346.4375 C-323.548125 347.7059375 -323.548125 347.7059375 -325 349 C-325 349.66 -325 350.32 -325 351 C-321.7 352.65 -318.4 354.3 -315 356 C-314.40574219 355.45472656 -313.81148437 354.90945313 -313.19921875 354.34765625 C-306.96660875 348.67724125 -300.57732789 343.26533778 -294 338 C-293.4848584 337.58524414 -292.9697168 337.17048828 -292.43896484 336.74316406 C-271.07257311 319.56993479 -248.48159831 304.14482046 -224.28369141 291.22412109 C-221.91304988 289.95339236 -219.5563695 288.65883974 -217.19921875 287.36328125 C-172.59624235 263.12489608 -123.73775342 248.97602769 -74 240 C-73.01 236.04 -72.02 232.08 -71 228 C-153.71007736 228 -245.13626196 281.7023153 -315.87109375 341.0625 Z M73 229 C73.44849593 233.91239701 74.36572957 237.79288678 77 242 C81.93413671 244.48384182 86.88963222 245.40944844 92.31173706 246.31176758 C95.87264557 246.90607316 99.40349576 247.62889001 102.94117737 248.34692383 C104.73211626 248.70974049 106.5243256 249.06634082 108.31773376 249.41674805 C179.54140421 263.46003218 252.00286846 304.67600081 303.984375 354.91796875 C307.24307865 358.08009879 307.24307865 358.08009879 311.5 359.125 C314.8241491 357.6291329 317.88343156 355.89438474 321 354 C312.95392377 343.9967701 302.96727119 336.00778144 293 328 C291.89122702 327.08809011 290.78318686 326.17528866 289.67578125 325.26171875 C263.63271668 303.91529716 234.4614627 285.59735861 204.11230469 271.02148438 C201.81844108 269.91220035 199.53845379 268.77682896 197.2578125 267.640625 C183.50343075 260.8564949 169.41535301 255.21891515 155 250 C153.94103516 249.61457031 152.88207031 249.22914063 151.79101562 248.83203125 C137.81743964 243.80531822 123.70802415 239.72453363 109.3125 236.125 C108.56526672 235.93759247 107.81803345 235.75018494 107.04815674 235.55709839 C90.20273026 230.92477506 90.20273026 230.92477506 73 229 Z M-185 295 C-186.01980957 295.46809082 -187.03961914 295.93618164 -188.09033203 296.41845703 C-219.19818216 310.77925032 -248.27305368 328.52583608 -275 350 C-275.54027832 350.43135254 -276.08055664 350.86270508 -276.63720703 351.30712891 C-282.56208966 356.04815186 -288.33505898 360.95187204 -294 366 C-291.29925312 369.20848483 -287.80216468 370.81950659 -284.12109375 372.66015625 C-283.4413147 373.00630981 -282.76153564 373.35246338 -282.06115723 373.70910645 C-280.60805193 374.44868123 -279.15369556 375.18580216 -277.69821167 375.92068481 C-273.91733772 377.83028671 -270.14590018 379.75829455 -266.375 381.6875 C-265.63749008 382.06451553 -264.89998016 382.44153107 -264.14012146 382.82997131 C-258.67639563 385.631666 -253.2800104 388.53532291 -247.9375 391.5625 C-242.25386735 394.77593339 -236.51834851 397.80204429 -230.66113281 400.6862793 C-223.95776813 403.99486626 -217.32223032 407.43118252 -210.6875 410.875 C-209.52871338 411.47626709 -208.36992676 412.07753418 -207.17602539 412.69702148 C-201.82366274 415.47862643 -196.47707418 418.27041231 -191.14453125 421.08984375 C-190.26772705 421.55342285 -189.39092285 422.01700195 -188.48754883 422.49462891 C-186.87287631 423.35006145 -185.25936037 424.207682 -183.6472168 425.06787109 C-180.79053726 426.5834216 -178.07411577 427.97529474 -175 429 C-172.64783331 427.6853728 -170.47637002 426.31767103 -168.25 424.8125 C-161.42415918 420.37005731 -154.41538331 416.4382711 -147.1875 412.6875 C-146.24616211 412.19677002 -145.30482422 411.70604004 -144.33496094 411.20043945 C-136.49282215 407.15936531 -136.49282215 407.15936531 -133.3768158 406.1517334 C-129.09236018 404.61338008 -125.9057876 403.39883027 -123.37428284 399.48936462 C-122.05984227 396.22001229 -121.05258704 392.96453521 -120.10546875 389.5703125 C-119.71396039 388.2897167 -119.31854152 387.01031099 -118.91955566 385.73202515 C-117.84918013 382.26602877 -116.83205041 378.78639932 -115.82357407 375.30197144 C-114.75408326 371.64162578 -113.63547489 367.99638179 -112.52075195 364.34960938 C-110.87634099 358.95424743 -109.24827193 353.55440498 -107.63936138 348.14834976 C-104.43128353 337.37035929 -101.10904634 326.63022387 -97.75 315.8984375 C-97.23490115 314.25084553 -96.71987077 312.60323215 -96.20491028 310.95559692 C-95.44479342 308.52376197 -94.68464771 306.09193614 -93.9242754 303.66018105 C-91.51154804 295.94221166 -89.10729156 288.22166069 -86.72041321 280.49565506 C-86.29303682 279.11377632 -85.8646274 277.73221661 -85.43513489 276.35099411 C-84.84952458 274.46724234 -84.26779113 272.58228663 -83.6862793 270.69726562 C-83.35879196 269.63946899 -83.03130463 268.58167236 -82.69389343 267.49182129 C-81.91057952 265.10998983 -81.91057952 265.10998983 -82 263 C-115.20091507 263 -155.35597351 281.32156152 -185 295 Z M85 266 C87.13305983 275.06451859 89.76064962 283.92464787 92.578125 292.796875 C93.02684974 294.21921721 93.47524104 295.64166465 93.92332458 297.06420898 C94.87154733 300.0723752 95.82189009 303.07985935 96.77401733 306.08679199 C98.26283948 310.78882974 99.74677823 315.49239907 101.22973633 320.19628906 C102.72546436 324.94012181 104.22134311 329.68390601 105.71882629 334.42718506 C109.74546029 347.18236771 113.75061333 359.94415992 117.73840332 372.71154785 C118.66441168 375.6760847 119.59143591 378.64030246 120.51855469 381.60449219 C121.07885284 383.39776246 121.63907887 385.19105528 122.19921875 386.984375 C122.44200058 387.76047119 122.68478241 388.53656738 122.93492126 389.33618164 C123.16482254 390.07312256 123.39472382 390.81006348 123.6315918 391.56933594 C123.97043144 392.64095474 123.97043144 392.64095474 124.31611633 393.73422241 C124.81126756 395.37470984 125.26805918 397.0269367 125.70085144 398.68496704 C125.94056168 399.57831757 126.18027191 400.47166809 126.42724609 401.39208984 C126.63441254 402.20704926 126.84157898 403.02200867 127.05502319 403.86166382 C128.8977989 408.03157989 132.9256919 409.24130597 136.9375 410.875 C138.74168853 411.68910527 140.5423804 412.51099566 142.33984375 413.33984375 C143.26909668 413.76378418 144.19834961 414.18772461 145.15576172 414.62451172 C149.942544 416.93942428 154.46314382 419.67170705 159 422.4375 C159.84167725 422.94587402 160.68335449 423.45424805 161.55053711 423.97802734 C167.67909442 427.71521244 167.67909442 427.71521244 169.94140625 429.72290039 C171.94034029 431.23807659 171.94034029 431.23807659 174.41943359 430.84936523 C177.21909143 429.92788845 179.68241684 428.78766141 182.2890625 427.41015625 C183.30266846 426.8785791 184.31627441 426.34700195 185.3605957 425.79931641 C186.43784912 425.22616699 187.51510254 424.65301758 188.625 424.0625 C189.74801514 423.47130371 190.87103027 422.88010742 192.02807617 422.27099609 C194.30347508 421.07246273 196.57749834 419.87131384 198.85009766 418.66748047 C201.52518797 417.25135375 204.2040519 415.84310393 206.88671875 414.44140625 C213.84547076 410.80192342 220.7812825 407.12227235 227.6953125 403.3984375 C230.10919132 402.09861686 232.52325208 400.79913496 234.9375 399.5 C235.54091217 399.17521667 236.14432434 398.85043335 236.76602173 398.51580811 C245.06013306 394.05623783 253.41168384 389.74413006 261.86206055 385.58837891 C271.07204059 381.02997185 280.03731008 376.02314101 289 371 C289.23406982 368.88715687 289.23406982 368.88715687 287.5246582 367.50415039 C286.85265381 366.93688232 286.18064941 366.36961426 285.48828125 365.78515625 C284.75432129 365.16141113 284.02036133 364.53766602 283.26416016 363.89501953 C282.5169873 363.26966309 281.76981445 362.64430664 281 362 C280.03586182 361.17991455 280.03586182 361.17991455 279.05224609 360.34326172 C228.61230121 317.58890575 169.77437493 287.27935256 106 270 C105.17387207 269.77554199 104.34774414 269.55108398 103.49658203 269.31982422 C94.38090106 266.77581477 94.38090106 266.77581477 85 266 Z M-347.3828125 371.25 C-351.78900425 375.67595046 -355.94364189 380.25302906 -360 385 C-360.81339844 385.93585938 -361.62679687 386.87171875 -362.46484375 387.8359375 C-369.73327357 396.25005771 -376.457283 405.01298293 -383 414 C-383.4964502 414.68078613 -383.99290039 415.36157227 -384.50439453 416.06298828 C-400.24382744 437.74763192 -414.37198431 460.72115496 -425.97851562 484.88769531 C-427.08779965 487.18155892 -428.22317104 489.46154621 -429.359375 491.7421875 C-436.1429973 505.4955397 -441.78884419 519.58267897 -447 534 C-447.39074707 535.08023438 -447.78149414 536.16046875 -448.18408203 537.2734375 C-456.02801889 559.23514405 -461.80394854 581.73102496 -466.5 604.5625 C-466.66024658 605.33456787 -466.82049316 606.10663574 -466.9855957 606.90209961 C-467.85362359 611.3681862 -468.14259187 615.47864946 -468 620 C-466.20376144 619.60350587 -464.41301565 619.18206548 -462.625 618.75 C-461.62726563 618.51796875 -460.62953125 618.2859375 -459.6015625 618.046875 C-456.93776311 617.26848831 -456.93776311 617.26848831 -455.9140625 615.29174805 C-454.85427628 612.63463981 -454.30276362 610.09767829 -453.7734375 607.28515625 C-453.55067139 606.13893799 -453.32790527 604.99271973 -453.09838867 603.81176758 C-452.85967041 602.57450928 -452.62095215 601.33725098 -452.375 600.0625 C-441.970907 548.25588433 -422.42178059 499.12889379 -395 454 C-394.53851562 453.23333008 -394.07703125 452.46666016 -393.6015625 451.67675781 C-384.14856341 436.00053432 -373.49185452 421.23808596 -362 407 C-361.21753906 406.02289062 -360.43507813 405.04578125 -359.62890625 404.0390625 C-355.26102908 398.63409838 -350.74267154 393.40822874 -346.04296875 388.2890625 C-341.67947223 384.01390383 -341.67947223 384.01390383 -340 378.5625 C-341.25371349 375.34985919 -342.94531384 372.76098453 -345 370 C-346.18703553 369.888236 -346.18703553 369.888236 -347.3828125 371.25 Z M340 374 C339.10570626 375.5725165 338.23512573 377.15853741 337.375 378.75 C336.64410156 380.07257813 336.64410156 380.07257813 335.8984375 381.421875 C334.76041539 383.89328564 334.76041539 383.89328564 335.57421875 386.0234375 C337.36029205 388.49947336 339.33404583 390.66048345 341.4375 392.875 C347.37734525 399.26909416 352.72949664 406.04931389 358 413 C358.55236328 413.72783691 359.10472656 414.45567383 359.67382812 415.20556641 C367.95127927 426.16278455 375.79976667 437.30490963 383 449 C383.50354004 449.81774902 384.00708008 450.63549805 384.52587891 451.47802734 C413.13924827 498.27510053 432.40449387 548.46130059 444 602 C444.17934082 602.82064941 444.35868164 603.64129883 444.54345703 604.48681641 C445.38080094 608.32097009 446.19599296 612.15863305 447 616 C451.29 617.32 455.58 618.64 460 620 C459.44241593 611.48242261 458.27179642 603.39363646 456.4375 595.0625 C456.04050903 593.24939331 456.04050903 593.24939331 455.63549805 591.3996582 C438.32079966 514.02538014 401.98875239 439.55982264 347.90234375 381.11328125 C346 379 346 379 343.87890625 376.23046875 C343.25886719 375.49441406 342.63882812 374.75835938 342 374 C341.34 374 340.68 374 340 374 Z M-331.265625 403.24609375 C-338.93310079 411.36058771 -345.79600991 419.94444369 -352.44482422 428.90527344 C-353.91382285 430.88392465 -355.39489604 432.85290967 -356.87890625 434.8203125 C-392.19087409 481.93199451 -416.07992203 536.64769595 -429.9375 593.6875 C-430.25521362 594.98868774 -430.25521362 594.98868774 -430.5793457 596.31616211 C-430.86297974 597.52671265 -430.86297974 597.52671265 -431.15234375 598.76171875 C-431.31726318 599.46256592 -431.48218262 600.16341309 -431.65209961 600.88549805 C-432.0469166 603.28515416 -432.02229897 605.57169748 -432 608 C-423.0644824 606.55119225 -414.57550511 603.80046554 -405.98046875 601.046875 C-404.41219509 600.54885757 -402.84376067 600.05134617 -401.275177 599.55430603 C-397.95826484 598.50225943 -394.64237475 597.44707697 -391.32730103 596.38925171 C-386.16604228 594.74237922 -381.00261275 593.10239776 -375.83862305 591.46411133 C-374.9846119 591.19316178 -374.13060076 590.92221224 -373.25071049 590.6430521 C-371.5313538 590.09757011 -369.81198997 589.55211061 -368.09261894 589.00667381 C-365.52782022 588.192797 -362.96323708 587.37824392 -360.3986969 586.56355286 C-344.93148715 581.6515456 -329.43995828 576.82006563 -313.9362793 572.02441406 C-313.10393768 571.76664688 -312.27159607 571.5088797 -311.41403198 571.24330139 C-309.92298655 570.78172406 -308.43166939 570.32102277 -306.93997192 569.86155701 C-305.63211925 569.4569638 -304.32558544 569.04807716 -303.02055359 568.63447571 C-301.54542306 568.17126875 -300.06494449 567.72499547 -298.58161926 567.28874207 C-297.77560776 567.04183121 -296.96959625 566.79492035 -296.13916016 566.54052734 C-295.40291412 566.32141693 -294.66666809 566.10230652 -293.90811157 565.8765564 C-290.49109722 564.30683383 -289.38177881 561.23311332 -288.0625 557.9375 C-287.41313554 556.49285956 -286.75930217 555.05022153 -286.1015625 553.609375 C-285.76543945 552.85591797 -285.42931641 552.10246094 -285.08300781 551.32617188 C-283.22753528 547.34083772 -281.0858415 543.52067235 -278.9375 539.6875 C-278.51831299 538.92912842 -278.09912598 538.17075684 -277.66723633 537.3894043 C-274.73691197 532.14207928 -271.55763922 527.19751151 -267.984375 522.359375 C-266.56792963 518.96440275 -267.6790699 517.39298225 -269 514 C-270.15074406 511.59175071 -271.32659803 509.22633307 -272.5625 506.86328125 C-272.90988724 506.19079849 -273.25727448 505.51831573 -273.6151886 504.82545471 C-274.73923049 502.65224869 -275.86947193 500.48233783 -277 498.3125 C-277.78050596 496.80696608 -278.56069647 495.30126858 -279.34057617 493.79541016 C-284.06270996 484.68617696 -288.81614476 475.59340545 -293.61328125 466.5234375 C-296.43065198 461.19366301 -299.21442591 455.84644139 -302 450.5 C-306.88947038 441.11899419 -311.80485151 431.75199282 -316.73828125 422.39404297 C-319.03582993 418.03456883 -321.33017271 413.6734071 -323.625 409.3125 C-324.47134135 407.70442034 -325.31769426 406.09634676 -326.1640625 404.48828125 C-326.76992188 403.33714844 -327.37578125 402.18601562 -328 401 C-329.41335594 400.88266015 -329.41335594 400.88266015 -331.265625 403.24609375 Z M324 406 C316.21147868 419.93315391 308.50668478 433.8788103 301.41699219 448.18286133 C294.49723531 462.09315281 287.25683456 475.8516 280.01123047 489.59448242 C279.21944827 491.10080372 278.43319801 492.61004733 277.65283203 494.12231445 C275.47551515 498.31946933 273.17742411 502.39856147 270.73046875 506.4453125 C265.01215082 515.2216195 265.01215082 515.2216195 263.29296875 525.13671875 C264.90260514 528.08095562 266.85843111 530.41522562 269 533 C270.7564839 535.8567854 272.33912121 538.80261063 273.9375 541.75 C274.33090576 542.44053467 274.72431152 543.13106934 275.12963867 543.8425293 C275.52900635 544.54933838 275.92837402 545.25614746 276.33984375 545.984375 C276.74611496 546.70216125 277.15238617 547.41994751 277.57096863 548.15948486 C279 551 279 551 280.30007935 554.5750885 C282.30723244 559.99340808 284.07626 564.66289613 288.93196106 568.03787231 C292.5558419 569.5103538 296.18686687 570.59838098 299.96484375 571.57421875 C301.37464394 571.98647601 302.78285235 572.40420982 304.18954468 572.82695007 C307.9707459 573.94821112 311.76857254 574.99734786 315.57352066 576.03466034 C319.54579455 577.13164875 323.49799189 578.29640817 327.4519043 579.45751953 C332.3475103 580.89096469 337.2445175 582.31833928 342.15028381 583.7166748 C353.44180601 586.93606665 364.67003735 590.32206535 375.8671875 593.85546875 C376.61335642 594.09077742 377.35952534 594.32608608 378.12830544 594.56852531 C381.77822439 595.72042377 385.42717435 596.87535033 389.07546997 598.03237915 C395.81279445 600.16861343 402.5559094 602.28617442 409.30078125 604.3984375 C411.04722427 604.9498365 411.04722427 604.9498365 412.82894897 605.51237488 C413.88353302 605.84264175 414.93811707 606.17290863 416.0246582 606.51318359 C416.94301956 606.80212494 417.86138092 607.09106628 418.80757141 607.38876343 C420.9417485 608.08951759 420.9417485 608.08951759 423 608 C420.63668195 573.10375581 404.61754179 536.41114221 390 505 C389.57541504 504.07912598 389.15083008 503.15825195 388.71337891 502.20947266 C372.86496137 468.15968234 350.95338458 432.39185573 324 406 Z M-132 419 C-135.71131355 420.91093548 -139.4184926 422.82976123 -143.125 424.75 C-144.17171875 425.28882813 -145.2184375 425.82765625 -146.296875 426.3828125 C-153.91281756 430.26319747 -153.91281756 430.26319747 -161 435 C-161 435.66 -161 436.32 -161 437 C-157.90116855 438.67673137 -154.79511545 440.3396134 -151.6875 442 C-150.80642578 442.47695313 -149.92535156 442.95390625 -149.01757812 443.4453125 C-148.17001953 443.89648438 -147.32246094 444.34765625 -146.44921875 444.8125 C-145.66893311 445.23144531 -144.88864746 445.65039062 -144.0847168 446.08203125 C-141.9220443 447.20149681 -141.9220443 447.20149681 -139 447 C-137.63142054 442.90049661 -136.28263044 438.79475139 -134.9375 434.6875 C-134.54755859 433.52025391 -134.15761719 432.35300781 -133.75585938 431.15039062 C-133.39169922 430.03212891 -133.02753906 428.91386719 -132.65234375 427.76171875 C-132.31195068 426.73006592 -131.97155762 425.69841309 -131.62084961 424.63549805 C-130.73644553 421.91511109 -130.73644553 421.91511109 -132 419 Z M134 424 C136.31 431.59 138.62 439.18 141 447 C145.18678194 447 148.11522797 444.97458921 151.6875 443 C152.38939453 442.6184375 153.09128906 442.236875 153.81445312 441.84375 C155.54601247 440.90140478 157.27341426 439.95142732 159 439 C154.86490258 434.34487005 150.26478142 431.62468273 144.8125 428.6875 C143.99330078 428.23310547 143.17410156 427.77871094 142.33007812 427.31054688 C138.38258486 424.89795799 138.38258486 424.89795799 134 424 Z M-260 533 C-269.18106215 545.35249113 -269.18106215 545.35249113 -274 559 C-265.83600499 557.08927776 -257.9153982 554.76477561 -250 552 C-251.3922459 547.37324343 -253.29520984 543.35313769 -255.625 539.125 C-256.25664063 537.97257813 -256.88828125 536.82015625 -257.5390625 535.6328125 C-258.02117187 534.76398437 -258.50328125 533.89515625 -259 533 C-259.33 533 -259.66 533 -260 533 Z M255 537 C252.36 542.28 249.72 547.56 247 553 C251.66396276 554.99884118 256.01007288 556.75168747 260.8125 558.25 C261.93269531 558.60578125 263.05289063 558.9615625 264.20703125 559.328125 C266.93411264 560.30127895 266.93411264 560.30127895 269 559 C265.04 551.74 261.08 544.48 257 537 C256.34 537 255.68 537 255 537 Z M-469 764 C-462.20353652 812.94646066 -446.88932127 861.04988254 -424.08789062 904.89794922 C-422.88206487 907.22787736 -421.69916158 909.56883178 -420.515625 911.91015625 C-402.06094249 948.11845332 -377.81600579 981.22658923 -350.5 1011.25 C-349.9956543 1011.81114502 -349.49130859 1012.37229004 -348.97167969 1012.95043945 C-346.67244998 1015.44880583 -345.27557258 1016.90814247 -342 1018 C-341.10565843 1016.59546357 -340.23506808 1015.17578131 -339.375 1013.75 C-338.88773438 1012.96109375 -338.40046875 1012.1721875 -337.8984375 1011.359375 C-336.77373817 1009.09576781 -336.77373817 1009.09576781 -337.51171875 1007.0703125 C-339.58218545 1004.19013572 -341.98248829 1001.67330833 -344.4375 999.125 C-349.72972159 993.51237584 -354.55107774 987.66628508 -359.24609375 981.55078125 C-361.02522534 979.23469603 -362.84384502 976.96638165 -364.72265625 974.73046875 C-409.76277889 920.81250894 -443.57407923 847.70424137 -453.75390625 778.14453125 C-454.37516206 771.65337522 -454.37516206 771.65337522 -457.78125 766.47265625 C-459.92801647 765.60353624 -461.70250371 765.24405638 -464 765 C-465.66810481 764.67393985 -467.33514212 764.34225301 -469 764 Z M447 768 C444.90949671 772.09378958 444.1989207 776.24319458 443.56158447 780.74606323 C443.13594083 783.7397013 442.58836466 786.70720561 442.04727173 789.68177795 C441.76997185 791.21190933 441.49866846 792.74313906 441.23324585 794.27537537 C432.83060351 842.37353524 411.1966217 889.5531617 386 931 C385.52788086 931.78262207 385.05576172 932.56524414 384.56933594 933.37158203 C378.80627943 942.90246467 372.60565015 952.03518908 366 961 C364.92492188 962.47339844 364.92492188 962.47339844 363.828125 963.9765625 C355.35345404 975.4513907 346.41145907 986.62141425 336.70703125 997.08203125 C333.77282898 1000.20734483 333.77282898 1000.20734483 333.125 1004.25 C334.27617783 1007.86798746 336.02797934 1010.75570795 338 1014 C347.52242974 1010.19986563 355.08127023 997.55573319 361.21875 989.57421875 C362.98420896 987.28294397 364.78736593 985.03965056 366.65625 982.83203125 C381.23922068 965.46813406 393.88654084 945.69924283 404.92431641 925.91455078 C406.04610785 923.91793515 407.19862626 921.94133248 408.35546875 919.96484375 C420.82920942 898.41157755 430.59494049 875.40502089 439 852 C439.38639648 850.92991699 439.77279297 849.85983398 440.17089844 848.75732422 C455.08817938 807.34066079 455.08817938 807.34066079 461 764 C455.87273082 764 451.31663816 765.24379831 447 768 Z M-433 775 C-426.83304407 808.93740965 -416.50911033 841.70147327 -402 873 C-401.30003906 874.52318848 -401.30003906 874.52318848 -400.5859375 876.07714844 C-386.22068961 907.1986514 -368.46502448 936.25080728 -347 963 C-346.18144531 964.02996094 -345.36289062 965.05992187 -344.51953125 966.12109375 C-338.68133553 973.36608362 -332.60465093 980.4398012 -326 987 C-321.99307282 979.71211486 -318.08123374 972.38160395 -314.25 965 C-313.19039834 962.96338859 -312.13049852 960.92693228 -311.0703125 958.890625 C-310.54985352 957.89095703 -310.02939453 956.89128906 -309.49316406 955.86132812 C-306.98781701 951.06036876 -304.45720746 946.27279482 -301.9284668 941.48413086 C-299.48125886 936.84037631 -297.05859307 932.18465306 -294.65234375 927.51953125 C-289.23192969 917.01259885 -283.80132319 906.52482301 -278.0625 896.1875 C-273.33883609 887.66141072 -273.33883609 887.66141072 -268.75 879.0625 C-268.18796875 878.00160156 -267.6259375 876.94070313 -267.046875 875.84765625 C-265.83597907 872.55383859 -266.08247029 871.32722595 -267 868 C-268.01636339 865.89465216 -268.01636339 865.89465216 -269.3359375 863.875 C-270.05910156 862.70674683 -270.05910156 862.70674683 -270.796875 861.51489258 C-271.31765625 860.68497803 -271.8384375 859.85506348 -272.375 859 C-276.83948198 851.72836714 -281.05291592 844.37808393 -285 836.8125 C-285.4439209 835.96494141 -285.8878418 835.11738281 -286.34521484 834.24414062 C-289.84004544 827.48649032 -289.84004544 827.48649032 -290.71453857 824.82678223 C-292.3813967 820.11969713 -292.3813967 820.11969713 -295.88195801 816.73487854 C-298.2963603 815.75947477 -300.6870932 815.03866875 -303.203125 814.3671875 C-304.5962944 813.94826233 -304.5962944 813.94826233 -306.01760864 813.52087402 C-309.08639218 812.6058731 -312.16711638 811.74117927 -315.25 810.875 C-317.41598733 810.2376504 -319.58085137 809.59647208 -321.74462891 808.95166016 C-326.24710578 807.61309266 -330.75399473 806.29120507 -335.26464844 804.98046875 C-344.68600472 802.22847391 -354.04112334 799.26914167 -363.3999939 796.31307983 C-368.3350435 794.75695848 -373.27498446 793.21655279 -378.21484375 791.67578125 C-379.18188736 791.37396439 -380.14893097 791.07214752 -381.14527893 790.76118469 C-391.13342721 787.64454979 -401.12409451 784.53604597 -411.11773682 781.43707275 C-412.98665362 780.85741283 -414.85542982 780.27729937 -416.72406006 779.69671631 C-419.28304941 778.90185633 -421.84260168 778.10883829 -424.40234375 777.31640625 C-425.16333878 777.07971725 -425.9243338 776.84302826 -426.70838928 776.59916687 C-429.79857864 775.48202285 -429.79857864 775.48202285 -433 775 Z M413.01953125 778.3046875 C412.17515503 778.5712767 411.33077881 778.83786591 410.46081543 779.11253357 C407.57544235 780.0253604 404.69411799 780.95039342 401.8125 781.875 C399.75381491 782.52858269 397.69480326 783.18113748 395.63549805 783.83276367 C392.17542862 784.92767741 388.71559205 786.023283 385.25666809 787.12181091 C374.24543882 790.61791722 363.21760388 794.06006967 352.1875 797.49609375 C350.37016571 798.06245583 348.55283886 798.62884176 346.73551941 799.19525146 C339.43586379 801.47017789 332.13609146 803.74472841 324.83584595 806.01776123 C320.47684 807.37520941 316.11848727 808.73473688 311.76057434 810.09568977 C310.13476631 810.60303179 308.50873237 811.10965052 306.88246155 811.61550713 C304.6376139 812.31384985 302.39355137 813.01466191 300.1496582 813.71606445 C299.49488904 813.91910627 298.84011988 814.12214809 298.16550922 814.3313427 C291.38800207 816.04216345 291.38800207 816.04216345 286.42944336 820.38818359 C285.98737549 821.38156738 285.54530762 822.37495117 285.08984375 823.3984375 C284.5803418 824.50888428 284.07083984 825.61933105 283.54589844 826.76342773 C283.01512695 827.95524658 282.48435547 829.14706543 281.9375 830.375 C280.80935889 832.83856315 279.66453652 835.29398952 278.51171875 837.74609375 C278.22305939 838.36088089 277.93440002 838.97566803 277.63699341 839.60908508 C274.44172068 846.32042433 270.65290789 852.62318084 266.69506836 858.90576172 C266.22335205 859.65744629 265.75163574 860.40913086 265.265625 861.18359375 C264.64349121 862.15123657 264.64349121 862.15123657 264.00878906 863.13842773 C262.91154027 865.16323945 262.35682914 866.72256311 262 869 C262.56997424 870.9726636 262.56997424 870.9726636 263.65551758 872.91625977 C264.23786919 874.05509361 264.23786919 874.05509361 264.83198547 875.2169342 C265.26512558 876.03350998 265.69826569 876.85008575 266.14453125 877.69140625 C266.58834641 878.5507225 267.03216156 879.41003876 267.48942566 880.2953949 C268.91923937 883.05708816 270.36559079 885.80973172 271.8125 888.5625 C272.74523141 890.35815778 273.67688321 892.15437679 274.60742188 893.95117188 C277.38760345 899.30993078 280.19177228 904.6558989 283 910 C283.89140071 911.69952157 284.782759 913.39906538 285.67407227 915.09863281 C290.50456269 924.30090122 295.38477947 933.47439884 300.3125 942.625 C307.33371729 955.6855389 314.19808289 968.82378438 321 982 C325.27421857 978.6390229 328.71681247 975.16052211 332 970.8125 C332.96320088 969.55703014 333.92675989 968.30183498 334.890625 967.046875 C335.39529297 966.38623047 335.89996094 965.72558594 336.41992188 965.04492188 C338.02106093 962.97274314 339.65375397 960.9296325 341.296875 958.890625 C383.6379376 906.04743107 409.59997442 842.6916214 424 777 C419.88121793 775.62707264 416.99426859 777.01166698 413.01953125 778.3046875 Z M-277 824 C-269.37201401 841.84552476 -269.37201401 841.84552476 -258 857 C-250.06136284 845.66072729 -250.06136284 845.66072729 -246 833 C-250.09230237 831.7146509 -254.18573834 830.43299892 -258.28027344 829.15478516 C-259.67349619 828.71928126 -261.06640208 828.28276237 -262.45898438 827.84521484 C-264.45881357 827.21706337 -266.45974777 826.59255136 -268.4609375 825.96875 C-269.66540527 825.59169922 -270.86987305 825.21464844 -272.11083984 824.82617188 C-274.81966026 823.90835476 -274.81966026 823.90835476 -277 824 Z M263.99609375 824.96875 C262.78115234 825.37480469 261.56621094 825.78085938 260.31445312 826.19921875 C259.02212466 826.63278045 257.7298071 827.06637462 256.4375 827.5 C255.14132179 827.9337305 253.84509841 828.36732603 252.54882812 828.80078125 C249.36543713 829.86585631 246.18251949 830.93232419 243 832 C243.54269531 833.08539062 244.08539062 834.17078125 244.64453125 835.2890625 C247.76302083 841.52604167 250.88151042 847.76302083 254 854 C258.29998604 849.17943454 261.13734167 843.58525999 264.1875 837.9375 C264.73341797 836.94427734 265.27933594 835.95105469 265.84179688 834.92773438 C269.04522513 829.20883665 269.04522513 829.20883665 271 823 C268.68372428 823 266.14421312 824.24937979 263.99609375 824.96875 Z M-143.80859375 943.93359375 C-144.55560547 944.33513672 -145.30261719 944.73667969 -146.07226562 945.15039062 C-146.85279297 945.57513672 -147.63332031 945.99988281 -148.4375 946.4375 C-149.97673259 947.27162355 -151.51705552 948.10373898 -153.05859375 948.93359375 C-153.74236084 949.30540771 -154.42612793 949.67722168 -155.13061523 950.06030273 C-157 951 -157 951 -160 952 C-160 952.66 -160 953.32 -160 954 C-156.12936307 956.13301952 -152.25276729 958.25497498 -148.375 960.375 C-147.28058594 960.97828125 -146.18617188 961.5815625 -145.05859375 962.203125 C-143.99511719 962.78320312 -142.93164062 963.36328125 -141.8359375 963.9609375 C-140.86188965 964.49509277 -139.8878418 965.02924805 -138.88427734 965.57958984 C-135.97585533 967.01189044 -133.09555269 968.04844878 -130 969 C-132.37028851 959.90425874 -135.15698081 950.95607231 -138 942 C-140.47817721 942 -141.63474414 942.75315211 -143.80859375 943.93359375 Z M140 942 C138.9929564 945.1019264 137.99559195 948.20688098 137 951.3125 C136.57074219 952.63411133 136.57074219 952.63411133 136.1328125 953.98242188 C135.86210938 954.82998047 135.59140625 955.67753906 135.3125 956.55078125 C135.06113281 957.33106689 134.80976562 958.11135254 134.55078125 958.9152832 C133.87228247 961.12403849 133.87228247 961.12403849 134 964 C139.46479849 962.46602148 143.9781808 959.88493047 148.8125 957 C149.58787109 956.54882812 150.36324219 956.09765625 151.16210938 955.6328125 C155.24743867 953.4762918 155.24743867 953.4762918 158 950 C155.5664433 948.6589995 153.12864699 947.32705144 150.6875 946 C149.99720703 945.6184375 149.30691406 945.236875 148.59570312 944.84375 C144.53322495 942.60000308 144.53322495 942.60000308 140 942 Z M167.23828125 960.203125 C166.07026978 960.92290527 166.07026978 960.92290527 164.87866211 961.65722656 C164.03182861 962.1828418 163.18499512 962.70845703 162.3125 963.25 C156.53846362 966.81062913 150.75266034 970.18888888 144.6640625 973.1875 C143.62596436 973.70151367 142.58786621 974.21552734 141.51831055 974.74511719 C139.49916988 975.73140636 137.46950136 976.69649065 135.42895508 977.63769531 C134.50236084 978.09241211 133.5757666 978.54712891 132.62109375 979.015625 C131.8005249 979.40008789 130.97995605 979.78455078 130.13452148 980.18066406 C126.96726615 982.88023936 126.18937088 986.1418923 125 990 C124.64627823 991.08786804 124.29255646 992.17573608 123.92811584 993.29656982 C122.60512095 997.38425061 121.31027558 1001.48018152 120.01953125 1005.578125 C119.52896705 1007.13049265 119.03825623 1008.68281397 118.54740906 1010.23509216 C117.23667663 1014.38269302 115.92897294 1018.53124257 114.62216187 1022.68008041 C113.81249686 1025.25000997 113.00206162 1027.81969543 112.19140625 1030.38931274 C105.22701325 1052.4679806 98.3075997 1074.55993725 91.5 1096.6875 C90.98936508 1098.34573792 90.98936508 1098.34573792 90.46841431 1100.03747559 C89.52902239 1103.09077981 88.59197311 1106.14478842 87.65625 1109.19921875 C87.38246017 1110.09023788 87.10867035 1110.98125702 86.82658386 1111.89927673 C85.56146431 1115.39129978 85.56146431 1115.39129978 85 1119 C92.84243869 1118.38573173 100.16465045 1116.60580599 107.75 1114.5625 C108.40105713 1114.38737885 109.05211426 1114.21225769 109.72290039 1114.03182983 C135.02856227 1107.18492535 159.2072593 1097.92638565 183 1087 C184.39653809 1086.35877197 184.39653809 1086.35877197 185.82128906 1085.70458984 C222.33222126 1068.70188161 256.2092649 1044.99555502 286 1018 C282.33932685 1015.00317949 278.29929239 1012.92641598 274.125 1010.75 C273.36687012 1010.35159912 272.60874023 1009.95319824 271.82763672 1009.54272461 C267.28501866 1007.1646874 262.71770863 1004.84260653 258.125 1002.5625 C243.31431017 995.20741761 228.78989214 987.28998912 214.21777344 979.4765625 C190.91966473 964.205081 190.91966473 964.205081 167.23828125 960.203125 Z M-180.8671875 963.203125 C-181.82375244 963.68265625 -182.78031738 964.1621875 -183.76586914 964.65625 C-184.79188232 965.1821875 -185.81789551 965.708125 -186.875 966.25 C-187.94419678 966.79140625 -189.01339355 967.3328125 -190.11499023 967.890625 C-198.07500352 971.9478193 -205.93486046 976.17436702 -213.75927734 980.48608398 C-226.37707631 987.43529646 -239.13810481 994.13793181 -252.0625 1000.5 C-259.15854248 1004.00912698 -266.08299308 1007.82362466 -273.01196289 1011.65039062 C-278.93884034 1014.91520056 -284.92427913 1018.02115898 -291 1021 C-238.89655302 1074.14551592 -155.05258398 1112.10587246 -82 1122 C-87.90837586 1101.6909024 -94.18682174 1081.51000644 -100.57006836 1061.34613037 C-101.30837635 1059.013031 -102.04585737 1056.67967218 -102.78295898 1054.34619141 C-103.02485521 1053.58049332 -103.26675144 1052.81479523 -103.51597786 1052.02589417 C-104.00429703 1050.47912029 -104.49213402 1048.93219411 -104.97949028 1047.38511658 C-106.19260207 1043.53651972 -107.41434062 1039.69111134 -108.65505981 1035.85131836 C-110.91920563 1028.81403071 -113.09956894 1021.78397762 -114.97177982 1014.63084412 C-115.81918135 1011.40960019 -116.71209026 1008.20171799 -117.60802269 1004.99368286 C-118.01577631 1003.48294246 -118.40104975 1001.96591281 -118.76104164 1000.44308472 C-120.30212973 993.94083574 -121.73807929 988.10063091 -127.72236633 984.35585022 C-131.09060553 982.54774372 -134.55345387 981.08498087 -138.12681675 979.73479366 C-140.77436393 978.69624023 -143.26077726 977.39280588 -145.76953125 976.05859375 C-146.61008057 975.62329346 -147.45062988 975.18799316 -148.31665039 974.73950195 C-149.14028076 974.30984131 -149.96391113 973.88018066 -150.8125 973.4375 C-152.14559204 972.74370239 -152.14559204 972.74370239 -153.50561523 972.03588867 C-159.21697631 969.03037708 -164.65286942 965.85258581 -169.94140625 962.14453125 C-174.0316885 959.87042746 -177.03130795 961.26652182 -180.8671875 963.203125 Z M301.5 1032.9375 C296.17783699 1037.86798868 290.64784012 1042.44953814 285 1047 C283.89007259 1047.91339164 282.78072183 1048.82748435 281.671875 1049.7421875 C261.11670178 1066.58683614 238.73040691 1081.17250631 215.33203125 1093.74365234 C212.94306351 1095.0306737 210.56562898 1096.33761005 208.1875 1097.64453125 C169.92437692 1118.42800727 128.40583531 1131.7524806 86 1141 C84.25241639 1141.38717425 82.50500271 1141.77511684 80.7578125 1142.1640625 C79.51773438 1142.43992187 78.27765625 1142.71578125 77 1143 C75.68 1147.62 74.36 1152.24 73 1157 C83.10979322 1155.68533248 92.95954889 1153.85498033 102.875 1151.5 C103.96666473 1151.24206161 103.96666473 1151.24206161 105.0803833 1150.97891235 C147.84681256 1140.80406654 188.80440175 1124.80556861 227 1103 C227.92055176 1102.47647949 228.84110352 1101.95295898 229.78955078 1101.41357422 C257.63654904 1085.49754513 284.17336406 1066.75273444 307.8046875 1045.00390625 C310.66790234 1042.39033113 313.62751319 1039.89636743 316.6015625 1037.41015625 C318.23471676 1036.09431517 318.23471676 1036.09431517 318 1034 C316.56705502 1033.15885829 315.12845595 1032.32734313 313.6875 1031.5 C312.88699219 1031.0359375 312.08648438 1030.571875 311.26171875 1030.09375 C306.57296931 1027.8263064 304.94724962 1029.66373209 301.5 1032.9375 Z M-317.5625 1035 C-318.57441406 1035.556875 -319.58632813 1036.11375 -320.62890625 1036.6875 C-321.41136719 1037.120625 -322.19382812 1037.55375 -323 1038 C-321.84309731 1039.15690269 -320.68514388 1040.31276477 -319.5234375 1041.46484375 C-318.53357042 1042.46232519 -317.55850286 1043.47479441 -316.6015625 1044.50390625 C-311.76848348 1049.59458593 -306.29493356 1053.80624468 -300.75 1058.078125 C-298.39446336 1059.89656075 -296.08356447 1061.74911592 -293.8125 1063.671875 C-273.78498247 1080.50174702 -250.79688525 1094.30074274 -228 1107 C-227.26136719 1107.41749512 -226.52273438 1107.83499023 -225.76171875 1108.26513672 C-183.02073372 1132.34215583 -121.31916061 1159.32010144 -71 1158 C-71.36928451 1156.03648722 -71.77138641 1154.0791246 -72.1875 1152.125 C-72.40792969 1151.03445313 -72.62835937 1149.94390625 -72.85546875 1148.8203125 C-73.70033423 1145.8476794 -73.70033423 1145.8476794 -76.19677734 1144.90039062 C-79.12435377 1143.96005777 -81.9712893 1143.32612939 -84.99609375 1142.7734375 C-86.17888916 1142.55075195 -87.36168457 1142.32806641 -88.58032227 1142.09863281 C-89.85319092 1141.85983398 -91.12605957 1141.62103516 -92.4375 1141.375 C-162.24859247 1127.87081447 -229.15630759 1098.2089754 -285 1054 C-285.67595215 1053.46536133 -286.3519043 1052.93072266 -287.04833984 1052.37988281 C-294.67407477 1046.31934711 -302.14201587 1040.14673984 -309.27734375 1033.51171875 C-312.41825824 1030.75540604 -314.16073697 1033.12316522 -317.5625 1035 Z " fill="#000000" transform="translate(1004,307)"/>
<path d="M0 0 C1.38671875 1.59375 1.38671875 1.59375 2.6875 3.5 C26.76356425 36.86858027 67.59961042 55.56735554 106 67 C106.69706055 67.20931152 107.39412109 67.41862305 108.11230469 67.63427734 C128.72037359 73.7052009 150.6147672 77.9897188 172 80 C170.84094737 83.71109511 169.53907073 86.99794528 167.625 90.375 C164.58833564 96.2416918 163.24890431 102.35787917 161.796875 108.75390625 C161 112 161 112 160 113 C157.20226592 113.0990026 154.42919573 113.13175266 151.63098049 113.12304783 C150.29205777 113.1247786 150.29205777 113.1247786 148.9260861 113.12654433 C145.89564715 113.12921887 142.86525994 113.12468199 139.83482361 113.12025452 C137.65606583 113.12069005 135.47730811 113.12156462 133.29855067 113.12284368 C127.28077242 113.1250922 121.2630118 113.12106251 115.2452358 113.11606562 C108.76734692 113.1117664 102.28945912 113.11320717 95.81156921 113.1139679 C84.57798473 113.11466667 73.34440566 113.11137794 62.11082268 113.10573006 C50.32488922 113.09981962 38.53895807 113.09596544 26.75302315 113.09487724 C26.02110079 113.0948085 25.28917843 113.09473976 24.5350766 113.09466894 C20.81824185 113.09433062 17.10140709 113.09402923 13.38457233 113.09374207 C-12.964079 113.09163983 -39.31272732 113.0848974 -65.66137695 113.07543945 C-91.26391585 113.06625991 -116.86645393 113.0591739 -142.46899414 113.05493164 C-143.25772414 113.05480011 -144.04645413 113.05466859 -144.85908504 113.05453308 C-152.77960057 113.05321459 -160.70011611 113.05193877 -168.62063165 113.05069422 C-184.7566449 113.04815778 -200.8926581 113.04533653 -217.02867126 113.04234314 C-218.14161256 113.0421372 -218.14161256 113.0421372 -219.27703751 113.04192711 C-268.85135962 113.03272139 -318.42567996 113.01685485 -368 113 C-365.72571562 110.72571562 -364.3519669 110.32240421 -361.30566406 109.39038086 C-360.31670135 109.08433426 -359.32773865 108.77828766 -358.30880737 108.46296692 C-357.22205719 108.13358627 -356.13530701 107.80420563 -355.015625 107.46484375 C-353.87900421 107.11471725 -352.74238342 106.76459076 -351.57131958 106.40385437 C-348.45289667 105.44411419 -345.33287744 104.48977652 -342.21221161 103.53736115 C-338.90767522 102.52714238 -335.60545139 101.50943136 -332.30322266 100.49169922 C-331.63774729 100.28661995 -330.97227192 100.08154068 -330.28663063 99.87024689 C-328.93289838 99.45304903 -327.57917489 99.03582277 -326.22546005 98.61856842 C-324.16595527 97.98405045 -322.1062108 97.35031568 -320.04641724 96.71673584 C-308.22126412 93.07787016 -296.41650945 89.37580257 -284.61862183 85.6494751 C-279.11495371 83.9111803 -273.61023221 82.17622871 -268.10546875 80.44140625 C-266.98586258 80.08854553 -265.86625641 79.73568481 -264.71272278 79.37213135 C-250.04331014 74.75085604 -235.36652103 70.15315043 -220.6875 65.5625 C-219.99766399 65.34672806 -219.30782799 65.13095612 -218.59708786 64.90864563 C-189.57694764 55.83239655 -189.57694764 55.83239655 -175.82910156 51.6965332 C-175.16580841 51.49683426 -174.50251526 51.29713531 -173.81912231 51.09138489 C-171.951029 50.52946799 -170.08251254 49.96895785 -168.21383667 49.40898132 C-159.70414903 46.84768969 -151.23981184 44.16681307 -142.7890625 41.41796875 C-127.02004126 36.30718534 -111.21667747 31.3083491 -95.40209961 26.34057617 C-92.42345597 25.40483607 -89.44527846 24.46763537 -86.4675293 23.52905273 C-69.67921911 18.23755498 -52.87841828 13.00345408 -35.99827576 8.01133728 C-25.91058153 5.01786315 -15.93714852 1.72392024 -5.99755859 -1.72729492 C-3.38666107 -2.08373253 -2.192231 -1.39558861 0 0 Z " fill="#FCFCFC" transform="translate(757,874)"/>
<path d="M0 0 C2.6677119 2.6677119 3.13662518 5.10534242 4.2578125 8.71484375 C4.4771344 9.41456802 4.6964563 10.1142923 4.92242432 10.83522034 C5.66241905 13.20087797 6.3935509 15.56918739 7.125 17.9375 C7.6590423 19.64993483 8.1937276 21.36216925 8.72900391 23.07421875 C9.88680041 26.78015659 11.04123151 30.48712026 12.19335938 34.19482422 C13.97854051 39.93633643 15.77644519 45.67380266 17.578125 51.41015625 C17.88359253 52.38273376 18.18906006 53.35531128 18.50378418 54.35736084 C19.13662178 56.37217693 19.76947522 58.38698805 20.40234375 60.40179443 C21.3916003 63.55287701 22.37959561 66.70435236 23.3671875 69.85595703 C27.14098185 81.89808431 30.92362276 93.9373607 34.71771622 105.97310448 C36.85466669 112.75252837 38.99013485 119.53241918 41.125 126.3125 C41.36142464 127.06330463 41.59784927 127.81410927 41.84143829 128.58766556 C48.43092041 149.51684201 54.96273084 170.46097727 61.26220703 191.47973633 C64.49896493 202.25146673 67.90290271 212.96409406 71.3694191 223.66394806 C74.69635887 233.93372028 77.98349667 244.21514257 81.2265625 254.51171875 C81.55396675 255.55116607 81.55396675 255.55116607 81.88798523 256.61161232 C85.8787296 269.28707247 89.85006599 281.96864521 93.81707764 294.65155029 C96.27404261 302.50468433 98.74114126 310.35442356 101.22837639 318.1980257 C102.97480591 323.70687485 104.70734659 329.22001638 106.43426514 334.73501587 C107.14104698 336.98321035 107.85295103 339.22980134 108.57012939 341.47470093 C109.54991324 344.54416782 110.51155277 347.61874109 111.46875 350.6953125 C111.75918182 351.58979599 112.04961365 352.48427948 112.34884644 353.40586853 C112.59917633 354.22342117 112.84950623 355.04097382 113.10742188 355.88330078 C113.44090637 356.93893723 113.44090637 356.93893723 113.78112793 358.01589966 C114.0660921 360.5991324 113.37023629 361.8304592 112 364 C110.40625 365.38671875 110.40625 365.38671875 108.5 366.6875 C60.95549147 400.99176565 43.36952373 465.17862318 34 520 C33.48323739 523.69083343 32.98820307 527.38177502 32.53393555 531.08081055 C32.04165206 533.77227542 31.3726351 535.65622468 30 538 C29.09121094 537.48050781 28.18242188 536.96101562 27.24609375 536.42578125 C25.97693084 535.72069074 24.70737748 535.01630274 23.4375 534.3125 C22.84775391 533.97283203 22.25800781 533.63316406 21.65039062 533.28320312 C14.56550891 529.39560136 8.0474858 527.68249527 0 525 C0 351.75 0 178.5 0 0 Z " fill="#FEFEFE" transform="translate(1018,393)"/>
<path d="M0 0 C172.59 0 345.18 0 523 0 C514.12662701 5.91558199 502.29481566 8.19000662 492.1328125 11.1171875 C483.18995151 13.69953773 474.35004674 16.50762644 465.52856445 19.47924805 C459.76217611 21.42015071 453.97974654 23.27940988 448.15625 25.04296875 C444.49341024 26.15360704 440.84001224 27.29348741 437.1875 28.4375 C436.17949341 28.75291748 436.17949341 28.75291748 435.15112305 29.07470703 C433.78349866 29.50267112 432.41590442 29.93073156 431.04833984 30.35888672 C427.69926642 31.40711876 424.34960815 32.45347821 421 33.5 C419.66666377 33.9166574 418.33333044 34.33332407 417 34.75 C409 37.25 401 39.75 393 42.25 C392.34008057 42.45625 391.68016113 42.6625 391.00024414 42.875 C389.6661549 43.291852 388.33200769 43.70851851 386.99780273 44.125 C383.67553582 45.16232203 380.35432074 46.2027901 377.03515625 47.25 C370.33383673 49.36056086 363.62221202 51.41579896 356.875 53.375 C349.47269509 55.52859955 342.12903906 57.84699508 334.78881836 60.20263672 C327.52322529 62.529473 320.23446385 64.77374392 312.9375 67 C303.93633257 69.75061528 294.98834775 72.62660726 286.06933594 75.63232422 C280.45635016 77.52263439 274.82516042 79.32622397 269.15625 81.04296875 C265.49341024 82.15360704 261.84001224 83.29348741 258.1875 84.4375 C257.17949341 84.75291748 257.17949341 84.75291748 256.15112305 85.07470703 C254.78349866 85.50267112 253.41590442 85.93073156 252.04833984 86.35888672 C248.69926642 87.40711876 245.34960815 88.45347821 242 89.5 C240.66666377 89.9166574 239.33333044 90.33332407 238 90.75 C235.33333333 91.58333333 232.66666667 92.41666667 230 93.25 C229.01012085 93.559375 229.01012085 93.559375 228.00024414 93.875 C226.6661549 94.291852 225.33200769 94.70851851 223.99780273 95.125 C220.67553582 96.16232203 217.35432074 97.2027901 214.03515625 98.25 C206.55443717 100.6057913 199.05486301 102.86775306 191.52050781 105.04589844 C185.30729232 106.86391326 179.17660437 108.90507025 173.06298828 111.03295898 C169.05156087 112.40813532 165.22560399 113.44102246 161 114 C160.52691406 113.39414063 160.05382813 112.78828125 159.56640625 112.1640625 C118.35575002 59.94783141 52.74525562 40.45978945 -11 32 C-10.31164063 30.42025391 -10.31164063 30.42025391 -9.609375 28.80859375 C-8.98905706 27.35178648 -8.36929621 25.89474191 -7.75 24.4375 C-7.44964844 23.75236328 -7.14929687 23.06722656 -6.83984375 22.36132812 C-3.71430679 14.94649044 -2.14075207 8.02782026 0 0 Z " fill="#FEFEFE" transform="translate(1084,1012)"/>
<path d="M0 0 C1.07121094 0.433125 1.07121094 0.433125 2.1640625 0.875 C14.46592066 5.82663178 14.46592066 5.82663178 27.375 8.5625 C31 9 31 9 32 10 C32.0989856 12.76659157 32.13175505 15.50823955 32.12304783 18.27531528 C32.12420167 19.15780019 32.12535552 20.0402851 32.12654433 20.94951198 C32.12921882 23.94549071 32.12468203 26.94141711 32.12025452 29.93739319 C32.12069005 32.09140216 32.12156462 34.24541109 32.12284368 36.39941972 C32.12509218 42.3487886 32.12106253 48.29813966 32.11606562 54.24750626 C32.11176637 60.65177482 32.11320717 67.05604229 32.1139679 73.46031189 C32.11449347 84.566211 32.11137795 95.67210417 32.10573006 106.77800179 C32.0998196 118.42996308 32.09596544 130.08192203 32.09487724 141.73388481 C32.0948085 142.45748909 32.09473976 143.18109337 32.09466894 143.92662505 C32.09433062 147.60121954 32.09402923 151.27581402 32.09374207 154.95040851 C32.09163984 180.99957406 32.08489742 207.04873656 32.07543945 233.09790039 C32.0662599 258.40942366 32.0591739 283.7209461 32.05493164 309.0324707 C32.05480011 309.81223636 32.05466859 310.59200202 32.05453308 311.39539695 C32.05321459 319.22589208 32.05193877 327.05638722 32.05069422 334.88688237 C32.04815778 350.83950019 32.04533653 366.79211797 32.04234314 382.74473572 C32.0421372 383.84502761 32.0421372 383.84502761 32.04192711 384.96754762 C32.0327214 433.97836638 32.01685486 482.98918334 32 532 C25.73447504 522.60171256 23.42025546 509.88871516 20.29541016 499.14916992 C17.9179228 490.98837297 15.39495051 482.8830001 12.79760742 474.78955078 C10.4706704 467.52371956 8.2263312 460.23471007 6 452.9375 C3.24938472 443.93633257 0.37339274 434.98834775 -2.63232422 426.06933594 C-4.52263439 420.45635016 -6.32622397 414.82516042 -8.04296875 409.15625 C-9.15360704 405.49341024 -10.29348741 401.84001224 -11.4375 398.1875 C-11.75291748 397.17949341 -11.75291748 397.17949341 -12.07470703 396.15112305 C-12.50267112 394.78349866 -12.93073156 393.41590442 -13.35888672 392.04833984 C-14.40711876 388.69926642 -15.45347821 385.34960815 -16.5 382 C-16.9166574 380.66666377 -17.33332407 379.33333044 -17.75 378 C-18.58333333 375.33333333 -19.41666667 372.66666667 -20.25 370 C-20.45625 369.34008057 -20.6625 368.68016113 -20.875 368.00024414 C-21.291852 366.6661549 -21.70851851 365.33200769 -22.125 363.99780273 C-23.16232203 360.67553582 -24.2027901 357.35432074 -25.25 354.03515625 C-27.36056086 347.33383673 -29.41579896 340.62221202 -31.375 333.875 C-33.52879895 326.4720097 -35.84847253 319.12804919 -38.20263672 311.78662109 C-40.52185857 304.5404518 -42.77242165 297.27482173 -45 290 C-49.41487899 275.59893309 -53.88993339 261.21637192 -58.6875 246.9375 C-60.53508941 241.43685921 -62.28481337 235.91486084 -63.97265625 230.36328125 C-64.90108711 227.3238175 -65.84938234 224.29119242 -66.80444336 221.26000977 C-68.97410798 214.37113633 -71.03994594 207.45949351 -73.0456543 200.52124023 C-74.86382226 194.30779922 -76.90498442 188.17685098 -79.03295898 182.06298828 C-80.40813532 178.05156087 -81.44102246 174.22560399 -82 170 C-81.39414062 169.52691406 -80.78828125 169.05382813 -80.1640625 168.56640625 C-49.20612751 144.1334514 -31.80569425 113.51194293 -18 77 C-17.71543945 76.25169922 -17.43087891 75.50339844 -17.13769531 74.73242188 C-8.21941113 50.8781179 -3.99570956 25.06399636 0 0 Z " fill="#FEFEFE" transform="translate(960,1075)"/>
<path d="M0 0 C13.95291259 11.28376605 26.07648044 27.40996819 28.203125 45.66845703 C29.52926073 67.70177643 27.0204494 87.4937833 12.15185547 104.72192383 C9.92563707 107.14535742 7.5985224 109.41013531 5.203125 111.66845703 C4.43613281 112.40451172 3.66914062 113.14056641 2.87890625 113.89892578 C-2.05243053 118.22745059 -7.42311578 121.21015631 -13.296875 124.04345703 C-13.98475098 124.37764648 -14.67262695 124.71183594 -15.38134766 125.05615234 C-29.6600356 131.59143681 -50.14168244 132.47060587 -65.078125 127.77001953 C-75.07769189 123.71847088 -83.73449757 118.95695879 -91.796875 111.66845703 C-92.50457031 111.04197266 -93.21226562 110.41548828 -93.94140625 109.77001953 C-106.51931572 97.98574489 -114.52614673 81.07318969 -115.09765625 63.86376953 C-115.30438574 42.52720163 -111.4218315 25.84625641 -96.796875 9.66845703 C-95.85714844 8.60691406 -95.85714844 8.60691406 -94.8984375 7.52392578 C-89.85393339 2.13968976 -84.17571071 -1.67243525 -77.796875 -5.33154297 C-76.97058594 -5.80720703 -76.14429688 -6.28287109 -75.29296875 -6.77294922 C-51.90618357 -19.34850786 -21.03475009 -15.58743573 0 0 Z " fill="#FBFBFB" transform="translate(1043.796875,942.33154296875)"/>
<path d="M0 0 C-3.960396 4.86562937 -7.96461176 9.3628399 -12.875 13.3125 C-16.14614212 15.95815241 -18.7302854 19.07933755 -21.38671875 22.328125 C-23 24 -23 24 -26 25 C-26 25.66 -26 26.32 -26 27 C-26.66 27 -27.32 27 -28 27 C-28.66 28.32 -29.32 29.64 -30 31 C-30.66 31 -31.32 31 -32 31 C-32.66 32.32 -33.32 33.64 -34 35 C-34.66 35 -35.32 35 -36 35 C-36.37125 35.85851563 -36.37125 35.85851563 -36.75 36.734375 C-38.19316199 39.35010611 -39.88216222 41.14773456 -42 43.25 C-42.70125 43.95640625 -43.4025 44.6628125 -44.125 45.390625 C-46 47 -46 47 -48 47 C-48.25824787 47.58317214 -48.51649573 48.16634429 -48.78256929 48.76718831 C-50.1008619 51.18498436 -51.5327811 52.78122998 -53.47889137 54.72498703 C-54.20393635 55.45401411 -54.92898134 56.18304119 -55.67599738 56.93415999 C-56.47559799 57.72793493 -57.27519861 58.52170986 -58.09902954 59.33953857 C-58.94603373 60.18825161 -59.79303792 61.03696465 -60.6657089 61.91139627 C-63.01772422 64.26613838 -65.37414929 66.6163048 -67.73253012 68.96466136 C-70.27464859 71.49814945 -72.81099139 74.03740801 -75.34803772 76.57597351 C-79.74443288 80.97341778 -84.14447744 85.36718299 -88.54701614 89.75847626 C-94.91235484 96.10756648 -101.27216905 102.46216683 -107.63064496 108.81812909 C-117.94679567 119.12990167 -128.26740556 129.43719926 -138.59082031 139.74169922 C-148.61952904 149.75205219 -158.64613674 159.76450189 -168.66992188 169.77978516 C-169.28770451 170.39704235 -169.90548715 171.01429954 -170.54199047 171.65026149 C-173.64118634 174.74684729 -176.74034089 177.84347443 -179.83947492 180.94012213 C-205.55324907 206.63316012 -231.27426053 232.31894284 -257 258 C-257.33 257.34 -257.66 256.68 -258 256 C-257.1706543 253.96313477 -257.1706543 253.96313477 -255.82421875 251.44140625 C-255.33123291 250.50828613 -254.83824707 249.57516602 -254.33032227 248.61376953 C-253.78819092 247.60685059 -253.24605957 246.59993164 -252.6875 245.5625 C-252.13570068 244.52206543 -251.58390137 243.48163086 -251.01538086 242.40966797 C-249.88356969 240.27645741 -248.74854741 238.14494752 -247.61035156 236.01513672 C-245.40960332 231.89457262 -243.23553453 227.76022196 -241.0625 223.625 C-240.66635498 222.87355713 -240.27020996 222.12211426 -239.86206055 221.34790039 C-235.81497507 213.66797279 -231.81728483 205.96249571 -227.81665039 198.25830078 C-224.170517 191.24052604 -220.49939066 184.23655016 -216.80859375 177.2421875 C-213.34676658 170.67473402 -209.9213392 164.08862102 -206.5 157.5 C-202.2684677 149.35152006 -198.01702625 141.21423151 -193.73388672 133.09277344 C-188.45557129 123.07946736 -183.23116081 113.03799425 -178 103 C-174.96612087 97.17833586 -171.93137104 91.35714345 -168.890625 85.5390625 C-166.99605886 81.91351725 -165.11144095 78.28307093 -163.234375 74.6484375 C-161.19311152 70.70382866 -159.11923575 66.77878317 -157.00634766 62.87207031 C-156.17656676 61.32846043 -155.3719179 59.77136816 -154.57421875 58.2109375 C-139.88940513 32.4784158 -93.37622201 18.65509306 -67 11 C-11.54275515 -3.91327553 -11.54275515 -3.91327553 0 0 Z " fill="#FCFCFC" transform="translate(937,1056)"/>
<path d="M0 0 C3.56758735 1.36621603 6.92864911 2.93629211 10.30859375 4.71484375 C11.30310547 5.23626953 12.29761719 5.75769531 13.32226562 6.29492188 C14.35029297 6.83697266 15.37832031 7.37902344 16.4375 7.9375 C18.47762911 9.00956281 20.51798703 10.08119032 22.55859375 11.15234375 C23.51483643 11.65491699 24.4710791 12.15749023 25.45629883 12.67529297 C27.38921214 13.6819143 29.33612154 14.6617134 31.2890625 15.62890625 C35.18799207 17.60084325 38.93827007 19.82215911 42.70117188 22.0390625 C45.59110051 23.7160532 48.39477304 25.16899835 51.4765625 26.48828125 C55.31652248 28.13580288 58.8303771 30.09299775 62.4375 32.1875 C70.47367751 36.78108154 78.68974746 40.929534 87 45 C98.91899446 50.87425085 110.67740061 57.05629663 122.37890625 63.3515625 C123.39440552 63.89707764 123.39440552 63.89707764 124.43041992 64.45361328 C125.68584347 65.12916197 126.94000939 65.80705547 128.19262695 66.48779297 C131.39580056 68.21247296 134.59254987 69.72380145 138 71 C138 71.66 138 72.32 138 73 C138.55042969 73.10570312 139.10085938 73.21140625 139.66796875 73.3203125 C142.48784798 74.14218685 144.7598611 75.42357024 147.3125 76.875 C150.28604189 78.56325916 153.19232492 80.08210362 156.33984375 81.42578125 C160.43558136 83.18734182 164.32462618 85.20528796 168.25 87.3125 C168.99507812 87.70985352 169.74015625 88.10720703 170.5078125 88.51660156 C175.549587 91.20976398 180.58671063 93.91211903 185.5859375 96.68359375 C187.15767601 97.54067446 188.74608134 98.36808332 190.3515625 99.16015625 C218.72183385 113.54027661 234.68576075 156.48392889 243.95654297 184.67578125 C249.0534848 200.91348832 252.44627322 217.51935229 255.4375 234.25 C255.56941742 234.98169403 255.70133484 235.71338806 255.83724976 236.46725464 C258.38539261 250.74333924 258.38539261 250.74333924 258 258 C251.86291509 252.92182642 246.25150774 247.39212275 240.62928772 241.75627136 C239.58813238 240.71626961 238.54675938 239.67648573 237.50518888 238.63689977 C234.65696205 235.79283316 231.81184504 232.94567358 228.96725023 230.0979749 C225.89415791 227.02261538 222.81818383 223.95014048 219.74258423 220.87728882 C213.7248844 214.86403058 207.70988496 208.84807821 201.69585646 202.83114841 C196.81084609 197.94387894 191.92485968 193.05758727 187.03817558 188.17199135 C186.34250834 187.47647734 185.6468411 186.78096333 184.93009303 186.06437314 C183.51689901 184.65149884 182.10370274 183.23862678 180.69050425 181.82575694 C167.44810058 168.58620302 154.20876088 155.3435886 140.97047006 142.0999224 C129.60078507 130.72576391 118.22847245 119.35423814 106.85424805 107.98461914 C93.64841711 94.78413271 80.44420072 81.58203475 67.2425794 68.37733823 C65.83675972 66.97119999 64.43093795 65.56506385 63.02511406 64.15892982 C61.98752391 63.12110827 61.98752391 63.12110827 60.92897235 62.06232062 C56.04364485 57.17612803 51.15715451 52.2911002 46.2702198 47.40651512 C40.32313025 41.46222212 34.37780926 35.51616715 28.43479002 29.5678046 C25.40012561 26.53050211 22.36464875 23.4940231 19.32702065 20.45968437 C16.55136901 17.68699318 13.77800129 14.91203945 11.00650685 12.13519303 C9.99884977 11.12641075 8.99033199 10.1184874 7.98090959 9.11147156 C6.61845501 7.75201856 5.25932335 6.38923765 3.90040684 5.02624798 C3.14172292 4.26740171 2.38303901 3.50855544 1.60136467 2.72671384 C0 1 0 1 0 0 Z " fill="#FCFCFC" transform="translate(690,675)"/>
<path d="M0 0 C3.70910399 1.55300856 6.06365303 3.81703452 8.8891449 6.64863586 C9.36681039 7.12459251 9.84447589 7.60054916 10.3366161 8.09092873 C11.93419752 9.68521898 13.52453081 11.2865466 15.11499023 12.88793945 C16.25973271 14.03324616 17.40491594 15.17811248 18.55050659 16.3225708 C21.66037263 19.43186246 24.76402746 22.54728834 27.86662173 25.66383386 C31.11583899 28.92555857 34.37072541 32.18161591 37.62501526 35.4382782 C43.79240191 41.61188501 49.95467436 47.79057065 56.11513048 53.9710924 C63.10810669 60.98635806 70.10670131 67.99600687 77.10580528 75.00515807 C89.07404788 86.99077586 101.03808696 98.98057606 112.99736023 110.97514343 C113.50368345 111.48294584 114.01000667 111.99074825 114.53167301 112.51393861 C115.87739264 113.86362085 117.22304988 115.21336531 118.56870174 116.56311512 C120.27406052 118.27239246 121.98285152 119.97824907 123.69417286 121.6815567 C125.83500478 123.83410202 127.84183111 126.04739774 129.83886719 128.33276367 C136.4622826 135.72934274 143.54664996 142.67027568 150.578125 149.67578125 C152.07808062 151.17386718 153.57781219 152.67217746 155.07733154 154.17070007 C158.99892168 158.08849963 162.92350433 162.00328772 166.84875488 165.91741943 C170.84369886 169.90210747 174.8357941 173.8896473 178.828125 177.87695312 C185.27101314 184.31108476 191.71561206 190.74349665 198.1625061 197.1736145 C198.72853546 197.7381987 199.29456482 198.3027829 199.87774658 198.88447571 C200.40829399 199.41346277 200.9388414 199.94244984 201.485466 200.48746681 C202.92612806 201.92622565 204.3628017 203.36897492 205.79925537 204.81193542 C207.6614939 206.66344428 209.54661678 208.38337685 211.5625 210.0625 C214.1634129 212.27157231 216.72247935 214.44917688 219 217 C219 217.66 219 218.32 219 219 C219.99 219.33 220.98 219.66 222 220 C223.71108689 221.62102968 225.37253306 223.29503463 227 225 C228.66378067 226.66954767 230.33096086 228.33570919 232 230 C233.06396894 231.0636352 234.12776303 232.12744533 235.19140625 233.19140625 C235.74376953 233.74376953 236.29613281 234.29613281 236.86523438 234.86523438 C241.94140625 239.94140625 241.94140625 239.94140625 243.53173828 241.53955078 C244.8033765 242.80442272 246.10067172 244.043401 247.40234375 245.27734375 C249 247 249 247 249 249 C244.31791349 247.27891682 240.01570381 244.96816861 235.625 242.625 C233.91950417 241.72091386 232.21376417 240.81728821 230.5078125 239.9140625 C229.61094727 239.4387207 228.71408203 238.96337891 227.79003906 238.47363281 C223.03678627 235.96307682 218.2678837 233.48262354 213.5 231 C205.72224119 226.94691059 197.95353388 222.87733881 190.1965332 218.78466797 C185.96476289 216.55387809 181.7267846 214.33580499 177.48046875 212.1328125 C167.78622208 207.10098592 158.13442781 202.0113963 148.5625 196.75 C141.88513509 193.08247251 135.18119027 189.5202802 128.34619141 186.15625 C121.83088835 182.94240856 115.38377247 179.59979348 108.9375 176.25 C107.86588623 175.69449463 106.79427246 175.13898926 105.69018555 174.56665039 C97.18882186 170.1422459 97.18882186 170.1422459 93.27734375 167.87890625 C90.15798191 166.09057128 86.99854372 164.44072 83.79785156 162.80566406 C76.64700213 159.12578874 69.95632979 155.47564353 64 150 C63.52143555 149.56236328 63.04287109 149.12472656 62.54980469 148.67382812 C39.54265937 127.37772435 24.54150338 98.59600868 15 69 C14.59394531 67.76636719 14.18789062 66.53273438 13.76953125 65.26171875 C8.20933191 48.12062657 4.21114517 30.9525889 1.40136719 13.15039062 C1.01859043 10.82777957 1.01859043 10.82777957 0 8 C-0.12781786 5.32605036 -0.04391871 2.67904143 0 0 Z " fill="#FBFBFB" transform="translate(1063,1076)"/>
<path d="M0 0 C0.33 0.66 0.66 1.32 1 2 C-0.01635742 4.28735352 -0.01635742 4.28735352 -1.60546875 7.12890625 C-2.17716797 8.16466797 -2.74886719 9.20042969 -3.33789062 10.26757812 C-3.94826172 11.35490234 -4.55863281 12.44222656 -5.1875 13.5625 C-9.10643591 20.5926522 -12.91244353 27.55926173 -16 35 C-16.66 35 -17.32 35 -18 35 C-18.13124268 35.58249512 -18.26248535 36.16499023 -18.39770508 36.76513672 C-19.38109033 40.41406602 -21.07303975 43.71805776 -22.6875 47.125 C-23.04908203 47.89126709 -23.41066406 48.65753418 -23.78320312 49.44702148 C-26.09168941 54.27288142 -28.61284039 58.84751934 -31.453125 63.3828125 C-33.3863455 66.65366536 -35.07181727 70.03158191 -36.75 73.4375 C-43.26274017 86.65230417 -50.24012638 99.62789486 -57.2109375 112.60546875 C-58.48798541 115.0285138 -59.73427312 117.4544572 -60.953125 119.90625 C-63.02709972 124.07773319 -65.18979995 128.1984034 -67.375 132.3125 C-67.76856689 133.0559668 -68.16213379 133.79943359 -68.56762695 134.56542969 C-70.73443803 138.65007457 -72.93889452 142.70962973 -75.1875 146.75 C-77.98687809 151.79818597 -80.26940557 157.029859 -82.5078125 162.34765625 C-84.1845999 165.3281239 -85.04390942 165.58222452 -88 167 C-89.61907556 169.44580173 -89.61907556 169.44580173 -91.0625 172.375 C-95.11223085 179.62280156 -100.24271114 185.10823432 -106 191 C-106.96873047 192.06154297 -106.96873047 192.06154297 -107.95703125 193.14453125 C-123.45705343 209.725165 -145.33299261 220.44218833 -166 229 C-167.41345703 229.59554687 -167.41345703 229.59554687 -168.85546875 230.203125 C-171.22321972 231.17649081 -173.60544427 232.0947883 -176 233 C-176.91136719 233.36351562 -177.82273437 233.72703125 -178.76171875 234.1015625 C-201.13678648 242.63326114 -225.22160418 247.54016595 -249 250 C-228.12597656 229.12597656 -228.12597656 229.12597656 -207.25195312 208.25195312 C-206.50794754 207.50757492 -205.76394196 206.76319672 -204.99739075 205.9962616 C-203.79148206 204.79103463 -202.5843893 203.5869885 -201.37504578 202.38520813 C-198.48779317 199.514898 -195.88901983 196.51965778 -193.33203125 193.35546875 C-192.89246094 192.90816406 -192.45289063 192.46085938 -192 192 C-191.34 192 -190.68 192 -190 192 C-190 191.34 -190 190.68 -190 190 C-189.34 190 -188.68 190 -188 190 C-188 189.34 -188 188.68 -188 188 C-187.34 188 -186.68 188 -186 188 C-186 187.34 -186 186.68 -186 186 C-184.60650537 184.84441908 -183.20855889 183.69380017 -181.7890625 182.5703125 C-179.08810941 180.19960695 -176.88402586 177.44896956 -174.61328125 174.671875 C-173 173 -173 173 -170 172 C-168.79117904 169.99983534 -168.79117904 169.99983534 -168 168 C-167.34 168 -166.68 168 -166 168 C-165.77868408 167.4527124 -165.55736816 166.9054248 -165.3293457 166.34155273 C-163.58424972 163.26768395 -161.23405048 160.98694375 -158.73046875 158.53515625 C-158.21245193 158.01996933 -157.69443512 157.50478241 -157.16072083 156.97398376 C-155.50763285 155.3320505 -153.84773823 153.69719981 -152.1875 152.0625 C-151.08222129 150.96726191 -149.97739872 149.87156329 -148.87304688 148.77539062 C-146.83118615 146.7498107 -144.78665531 144.72701058 -142.73901367 142.70727539 C-140.91166519 140.90110128 -139.10943553 139.06915916 -137.33325195 137.21264648 C-135 135 -135 135 -132 134 C-131.67 133.01 -131.34 132.02 -131 131 C-129.6171875 129.67578125 -129.6171875 129.67578125 -127.875 128.3125 C-125.12842658 126.05358349 -122.79537084 123.71601572 -120.5 121 C-117.76320129 117.77843201 -114.88026577 115.05846943 -111.62890625 112.3671875 C-108.4562108 109.70425367 -105.64881439 106.84345871 -103.125 103.5625 C-101.36773571 101.443446 -99.78730497 99.91785153 -97.6875 98.1875 C-94.42064481 95.47670527 -91.74136807 92.51223071 -89.06640625 89.22265625 C-87.2610861 87.28082796 -85.43823423 85.62567811 -83.42602539 83.90795898 C-78.79474542 79.87721668 -74.45150025 75.59569098 -70.1171875 71.25 C-68.89033737 70.02458496 -68.89033737 70.02458496 -67.63870239 68.77441406 C-65.92148064 67.05786873 -64.20550468 65.3400763 -62.49072266 63.62109375 C-59.87905015 61.00405846 -57.26207417 58.39241226 -54.64453125 55.78125 C-52.96842924 54.10448724 -51.29263742 52.42741434 -49.6171875 50.75 C-48.84204803 49.97688477 -48.06690857 49.20376953 -47.26828003 48.40722656 C-43.89754069 45.02202172 -40.63799979 41.6307368 -37.58642578 37.953125 C-36.30614502 36.49132812 -36.30614502 36.49132812 -35 35 C-34.34 35 -33.68 35 -33 35 C-33 34.34 -33 33.68 -33 33 C-32.34 33 -31.68 33 -31 33 C-30.67 32.01 -30.34 31.02 -30 30 C-25.68181818 25.22727273 -25.68181818 25.22727273 -22 24 C-21.32160579 22.67259519 -20.65729787 21.33797673 -20 20 C-18.52684957 18.36471585 -16.99589871 16.78076075 -15.4296875 15.234375 C-14.08583984 13.90019531 -14.08583984 13.90019531 -12.71484375 12.5390625 C-11.77769531 11.61867188 -10.84054687 10.69828125 -9.875 9.75 C-8.92011363 8.80515144 -7.96568141 7.85984367 -7.01171875 6.9140625 C-4.67890913 4.60481662 -2.34155914 2.30036797 0 0 Z " fill="#FEFEFE" transform="translate(1327,691)"/>
<path d="M0 0 C57.87833156 0 57.87833156 0 67.34765625 9.08203125 C74.66614106 17.57701007 75.346008 28.13903736 75.3125 38.875 C75.32861328 39.89980469 75.34472656 40.92460938 75.36132812 41.98046875 C75.36682387 50.6307792 74.0818587 58.71207801 69.125 66 C68.65320313 66.721875 68.18140625 67.44375 67.6953125 68.1875 C65.66196897 70.36139723 63.80393905 71.0875317 61 72 C61 72.66 61 73.32 61 74 C61.680625 74.165 62.36125 74.33 63.0625 74.5 C70.29760171 78.19452002 73.69826121 84.65932801 76.2734375 92.09375 C80.14946085 107.59784339 80.27196216 128.58000751 72.47265625 142.74609375 C67.12834162 150.92558855 60.34022829 154.66494293 51 157 C34.17 157 17.34 157 0 157 C0 105.19 0 53.38 0 0 Z M26 23 C26 36.53 26 50.06 26 64 C35.24323491 64.17691619 35.24323491 64.17691619 44 62 C49.90812492 56.09187508 49.24559458 50.69836359 49.3125 42.75 C49.34150391 41.61691406 49.37050781 40.48382812 49.40039062 39.31640625 C49.4489642 32.94205838 49.43721589 28.77474066 45 24 C39.32745403 21.16372702 32.3420992 23 26 23 Z M26 87 C26 102.84 26 118.68 26 135 C38.63001593 135.82490704 38.63001593 135.82490704 49.375 131.125 C53.49801709 125.73336227 52.22279774 118.1378361 52.25 111.6875 C52.270625 110.47642578 52.29125 109.26535156 52.3125 108.01757812 C52.38048118 99.06705675 52.38048118 99.06705675 49 91 C42.72458094 85.12591486 42.72458094 85.12591486 26 87 Z " fill="#000000" transform="translate(196,927)"/>
<path d="M0 0 C8.58 0 17.16 0 26 0 C26.02187378 5.67823975 26.02187378 5.67823975 26.04418945 11.47119141 C26.09450493 23.97228113 26.1609444 36.47324141 26.23571491 48.97420692 C26.28065815 56.55424229 26.32007616 64.13423082 26.34643555 71.71435547 C26.36942761 78.3220979 26.40283902 84.92969195 26.44870156 91.53731668 C26.47261767 95.03521122 26.49135693 98.53295897 26.49761391 102.03093338 C26.50479852 105.93826643 26.53524765 109.84523194 26.56762695 113.75244141 C26.56547432 115.4873735 26.56547432 115.4873735 26.5632782 117.25735474 C26.64572052 125.05529174 26.64572052 125.05529174 30 132 C34.43686821 134.95791214 38.79408467 134.65561752 44 134 C46.65563802 132.1031157 47.57242527 130.85514945 49 128 C49.10484537 126.30245546 49.14656948 124.60085531 49.15821838 122.90011597 C49.17290161 121.2804744 49.17290161 121.2804744 49.18788147 119.62811279 C49.19363693 118.43840881 49.1993924 117.24870483 49.20532227 116.02294922 C49.21522186 114.77420013 49.22512146 113.52545105 49.23532104 112.23886108 C49.26154483 108.80934188 49.28339197 105.37984641 49.30332303 101.9502883 C49.32516594 98.36812915 49.35256291 94.78601268 49.37937927 91.20388794 C49.42932912 84.41827854 49.47425943 77.63264548 49.51740164 70.84698975 C49.56675445 63.12275751 49.62167982 55.39856806 49.67708123 47.6743772 C49.79093646 31.78295614 49.89703206 15.8914959 50 0 C58.25 0 66.5 0 75 0 C75.04524099 16.23838489 75.08204382 32.47671554 75.10362434 48.71514606 C75.11391328 56.25583982 75.12792777 63.79649148 75.15087891 71.3371582 C75.17088604 77.91373051 75.18373373 84.49027231 75.18817699 91.06687421 C75.19077203 94.54538228 75.19682117 98.02380313 75.21146011 101.5022831 C75.22771386 105.39647617 75.22797502 109.29058585 75.22705078 113.18481445 C75.23424133 114.32345947 75.24143188 115.46210449 75.24884033 116.63525391 C75.21859622 128.46418977 74.03665588 139.96735663 66.05859375 149.26171875 C56.79799059 158.22412718 47.14868377 159.60803285 34.70898438 159.46875 C24.27730281 159.10981042 16.56934761 156.70653767 8.94140625 149.32421875 C0.06515356 138.69771906 -0.31224446 124.48138008 -0.22705078 111.25488281 C-0.22734283 110.04368774 -0.22763489 108.83249268 -0.22793579 107.58459473 C-0.22679171 104.30434771 -0.21685039 101.02427755 -0.20278788 97.74406528 C-0.19017619 94.30080007 -0.18910188 90.85753036 -0.18673706 87.41424561 C-0.18055266 80.91224092 -0.16418358 74.41030452 -0.14403808 67.90832973 C-0.12158371 60.49828673 -0.11066181 53.08824025 -0.10064721 45.67817163 C-0.07981418 30.45207028 -0.04317659 15.22605747 0 0 Z " fill="#000000" transform="translate(974,128)"/>
<path d="M0 0 C0.63679688 0.33902344 1.27359375 0.67804688 1.9296875 1.02734375 C8.3113122 4.87549083 11.54976841 11.47800899 14.3125 18.1875 C16.15503265 25.72513358 16.38109662 33.2659804 16 41 C15 42 15 42 12.77514648 42.11352539 C11.81680908 42.10828857 10.85847168 42.10305176 9.87109375 42.09765625 C8.83662109 42.09443359 7.80214844 42.09121094 6.73632812 42.08789062 C5.64771484 42.07951172 4.55910156 42.07113281 3.4375 42.0625 C1.7987793 42.05573242 1.7987793 42.05573242 0.12695312 42.04882812 C-2.58208495 42.03699826 -5.29101599 42.02051543 -8 42 C-8.08636719 40.83082031 -8.17273438 39.66164063 -8.26171875 38.45703125 C-8.40247186 36.90874699 -8.54446445 35.36057507 -8.6875 33.8125 C-8.76774414 32.65911133 -8.76774414 32.65911133 -8.84960938 31.48242188 C-9.25505786 27.37505242 -9.7247175 25.36577984 -12.26953125 21.984375 C-15.97672356 19.29016371 -18.18471573 19.34281304 -22.62109375 19.57421875 C-26.01727497 20.18207385 -27.76429637 21.40369901 -30 24 C-32.60323225 31.80969674 -31.51477917 40.69828471 -28 48 C-22.31587191 56.70571368 -14.3855302 63.70661892 -6.90014648 70.83251953 C6.00605764 83.15701947 15.76199651 96.47523779 16.46777344 115.02416992 C16.62454977 127.06863024 14.84598273 138.64991878 6.35546875 147.765625 C-2.62052184 156.46739999 -12.32532989 157.58951684 -24.35888672 157.47290039 C-30.89347949 157.25641047 -36.36956142 156.54101801 -42 153 C-43.0828125 152.34644531 -43.0828125 152.34644531 -44.1875 151.6796875 C-51.52711527 146.74163752 -55.36055804 140.05501201 -57.5078125 131.5625 C-58.6307581 123.43451279 -58.15628739 115.17904032 -58 107 C-50.08 107 -42.16 107 -34 107 C-33.6875 115.6875 -33.6875 115.6875 -33.61206055 118.3972168 C-33.39907389 123.01814629 -33.00397885 126.26821629 -30 130 C-25.56313179 132.95791214 -21.20591533 132.65561752 -16 132 C-13.34436198 130.1031157 -12.42757473 128.85514945 -11 126 C-10.06219204 115.28219472 -10.84848381 107.20065349 -17.89648438 98.71728516 C-22.70758254 93.38568163 -27.69036809 88.30359397 -32.85400391 83.3137207 C-47.42599339 69.18438134 -57.46514958 56.42371764 -58.25 35.4375 C-58.11210497 24.14734432 -55.53071218 12.71686094 -47.8125 4.25 C-36.4211062 -6.50308294 -13.13139799 -8.05427853 0 0 Z " fill="#000000" transform="translate(1024,1735)"/>
<path d="M0 0 C13.95291259 11.28376605 26.07648044 27.40996819 28.203125 45.66845703 C29.52926073 67.70177643 27.0204494 87.4937833 12.15185547 104.72192383 C9.92563707 107.14535742 7.5985224 109.41013531 5.203125 111.66845703 C4.43613281 112.40451172 3.66914062 113.14056641 2.87890625 113.89892578 C-2.05243053 118.22745059 -7.42311578 121.21015631 -13.296875 124.04345703 C-13.98475098 124.37764648 -14.67262695 124.71183594 -15.38134766 125.05615234 C-29.6600356 131.59143681 -50.14168244 132.47060587 -65.078125 127.77001953 C-75.07769189 123.71847088 -83.73449757 118.95695879 -91.796875 111.66845703 C-92.50457031 111.04197266 -93.21226562 110.41548828 -93.94140625 109.77001953 C-106.51931572 97.98574489 -114.52614673 81.07318969 -115.09765625 63.86376953 C-115.30438574 42.52720163 -111.4218315 25.84625641 -96.796875 9.66845703 C-95.85714844 8.60691406 -95.85714844 8.60691406 -94.8984375 7.52392578 C-89.85393339 2.13968976 -84.17571071 -1.67243525 -77.796875 -5.33154297 C-76.97058594 -5.80720703 -76.14429688 -6.28287109 -75.29296875 -6.77294922 C-51.90618357 -19.34850786 -21.03475009 -15.58743573 0 0 Z M-59.796875 0.66845703 C-60.65796875 0.92498047 -61.5190625 1.18150391 -62.40625 1.44580078 C-77.87331037 6.53594918 -89.15905667 16.37774586 -96.796875 30.66845703 C-99.70564274 37.10983675 -102.41551471 43.54973153 -102.796875 50.66845703 C-102.85875 51.57466797 -102.920625 52.48087891 -102.984375 53.41455078 C-103.6396762 70.14520959 -98.32504655 84.24412562 -87.484375 96.98095703 C-76.51073035 108.54777166 -62.19863809 115.27703431 -46.27880859 116.0534668 C-29.19991181 116.49196248 -14.47429661 109.69581278 -2.1171875 98.07470703 C8.64758114 86.91124325 14.11167382 72.23976451 14.515625 56.85595703 C14.20123131 40.55988419 7.75168313 25.80742044 -3.78125 14.36376953 C-15.88318118 3.14212299 -31.28752956 -1.64807006 -47.5234375 -1.48388672 C-51.83832267 -1.28307464 -55.67524106 -0.59253237 -59.796875 0.66845703 Z " fill="#F8F8F8" transform="translate(1043.796875,942.33154296875)"/>
<path d="M0 0 C25.41 0 50.82 0 77 0 C77 7.26 77 14.52 77 22 C76.505 22.495 76.505 22.495 76 23 C67.75 23 59.5 23 51 23 C51 67.22 51 111.44 51 157 C42.75 157 34.5 157 26 157 C26 112.78 26 68.56 26 23 C17.42 23 8.84 23 0 23 C0 15.41 0 7.82 0 0 Z " fill="#000000" transform="translate(1705,923)"/>
<path d="M0 0 C9.58503092 5.93205117 15.62381864 13.82938167 18.62890625 24.74609375 C20.06622524 35.19817658 17.95006565 45.45503878 11.81640625 54.12109375 C4.72900014 62.64012054 -3.98062142 67.93035338 -15.18359375 69.01953125 C-26.21432131 69.37100051 -34.34583983 66.64436666 -42.80859375 59.49609375 C-47.08995771 55.3659176 -49.98844147 51.1772924 -52.37109375 45.74609375 C-53.02078125 44.35390625 -53.02078125 44.35390625 -53.68359375 42.93359375 C-55.98041903 32.28467655 -54.44656083 21.27651213 -48.68359375 11.99609375 C-37.07606858 -3.89685025 -17.75933979 -9.39167722 0 0 Z " fill="#010101" transform="translate(1016.37109375,965.25390625)"/>
<path d="M0 0 C0.86882812 0.268125 1.73765625 0.53625 2.6328125 0.8125 C18.81061306 6.22012136 31.3228095 16.62809389 39.43359375 31.65625 C47.31316732 47.92979067 48.28389486 65.0294191 42.68017578 82.12011719 C36.82327795 98.30752327 24.97471344 110.26148095 9.6875 117.75 C-5.81515024 124.32885577 -23.100117 125.5599532 -38.875 119.25 C-56.17942432 111.94969599 -67.93851437 100.52320047 -75.2265625 82.98828125 C-81.12121337 67.83486058 -80.6953546 51.0325072 -74.40625 36.125 C-67.18370645 20.02438698 -55.87542309 8.61678119 -39.3515625 1.84375 C-26.80569082 -2.65775878 -12.89457682 -4.15649363 0 0 Z M-32 4 C-32.86109375 4.25652344 -33.7221875 4.51304687 -34.609375 4.77734375 C-50.07643537 9.86749215 -61.36218167 19.70928883 -69 34 C-71.90876774 40.44137972 -74.61863971 46.8812745 -75 54 C-75.061875 54.90621094 -75.12375 55.81242188 -75.1875 56.74609375 C-75.8428012 73.47675256 -70.52817155 87.57566859 -59.6875 100.3125 C-48.71385535 111.87931463 -34.40176309 118.60857728 -18.48193359 119.38500977 C-1.40303681 119.82350544 13.32257839 113.02735575 25.6796875 101.40625 C36.44445614 90.24278622 41.90854882 75.57130748 42.3125 60.1875 C41.99810631 43.89142716 35.54855813 29.13896341 24.015625 17.6953125 C11.91369382 6.47366596 -3.49065456 1.68347291 -19.7265625 1.84765625 C-24.04144767 2.04846833 -27.87836606 2.7390106 -32 4 Z " fill="#0D0D0D" transform="translate(1016,939)"/>
<path d="M0 0 C0.33 0.66 0.66 1.32 1 2 C0.00390625 4.1640625 0.00390625 4.1640625 -1.4375 6.625 C-2.14712891 7.85089844 -2.14712891 7.85089844 -2.87109375 9.1015625 C-3.24363281 9.72804688 -3.61617187 10.35453125 -4 11 C-4.99 11 -5.98 11 -7 11 C-9.00707617 12.55514344 -9.00707617 12.55514344 -11.07046032 14.70131683 C-11.90199822 15.52688159 -12.73353611 16.35244634 -13.59027213 17.2030282 C-14.50368835 18.12518295 -15.41710457 19.04733769 -16.35820007 19.99743652 C-17.33772658 20.97565583 -18.31791165 21.95321607 -19.29870063 22.93016958 C-22.00088482 25.62561996 -24.69358284 28.3303792 -27.38488543 31.03668857 C-30.28538199 33.95009961 -33.19450065 36.85487795 -36.1026001 39.76069641 C-41.14286022 44.79938089 -46.17758367 49.84354394 -51.20862389 54.89143372 C-58.48273285 62.1898887 -65.76507836 69.48007895 -73.0494828 76.7682566 C-84.86674297 88.59208817 -96.67728343 100.42260846 -108.48364258 112.25732422 C-119.95474369 123.75594809 -131.42898082 135.25142753 -142.9074707 146.74267578 C-143.61460048 147.45059373 -144.32173027 148.15851169 -145.05028822 148.8878817 C-148.59764962 152.43915811 -152.14507299 155.99037263 -155.69252717 159.54155636 C-185.13796536 189.01811189 -214.57251791 218.50551895 -244 248 C-243.67 248.66 -243.34 249.32 -243 250 C-244.98 250 -246.96 250 -249 250 C-228.12597656 229.12597656 -228.12597656 229.12597656 -207.25195312 208.25195312 C-206.50794754 207.50757492 -205.76394196 206.76319672 -204.99739075 205.9962616 C-203.79148206 204.79103463 -202.5843893 203.5869885 -201.37504578 202.38520813 C-198.48779317 199.514898 -195.88901983 196.51965778 -193.33203125 193.35546875 C-192.89246094 192.90816406 -192.45289063 192.46085938 -192 192 C-191.34 192 -190.68 192 -190 192 C-190 191.34 -190 190.68 -190 190 C-189.34 190 -188.68 190 -188 190 C-188 189.34 -188 188.68 -188 188 C-187.34 188 -186.68 188 -186 188 C-186 187.34 -186 186.68 -186 186 C-184.60650537 184.84441908 -183.20855889 183.69380017 -181.7890625 182.5703125 C-179.08810941 180.19960695 -176.88402586 177.44896956 -174.61328125 174.671875 C-173 173 -173 173 -170 172 C-168.79117904 169.99983534 -168.79117904 169.99983534 -168 168 C-167.34 168 -166.68 168 -166 168 C-165.77868408 167.4527124 -165.55736816 166.9054248 -165.3293457 166.34155273 C-163.58424972 163.26768395 -161.23405048 160.98694375 -158.73046875 158.53515625 C-158.21245193 158.01996933 -157.69443512 157.50478241 -157.16072083 156.97398376 C-155.50763285 155.3320505 -153.84773823 153.69719981 -152.1875 152.0625 C-151.08222129 150.96726191 -149.97739872 149.87156329 -148.87304688 148.77539062 C-146.83118615 146.7498107 -144.78665531 144.72701058 -142.73901367 142.70727539 C-140.91166519 140.90110128 -139.10943553 139.06915916 -137.33325195 137.21264648 C-135 135 -135 135 -132 134 C-131.67 133.01 -131.34 132.02 -131 131 C-129.6171875 129.67578125 -129.6171875 129.67578125 -127.875 128.3125 C-125.12842658 126.05358349 -122.79537084 123.71601572 -120.5 121 C-117.76320129 117.77843201 -114.88026577 115.05846943 -111.62890625 112.3671875 C-108.4562108 109.70425367 -105.64881439 106.84345871 -103.125 103.5625 C-101.36773571 101.443446 -99.78730497 99.91785153 -97.6875 98.1875 C-94.42064481 95.47670527 -91.74136807 92.51223071 -89.06640625 89.22265625 C-87.2610861 87.28082796 -85.43823423 85.62567811 -83.42602539 83.90795898 C-78.79474542 79.87721668 -74.45150025 75.59569098 -70.1171875 71.25 C-68.89033737 70.02458496 -68.89033737 70.02458496 -67.63870239 68.77441406 C-65.92148064 67.05786873 -64.20550468 65.3400763 -62.49072266 63.62109375 C-59.87905015 61.00405846 -57.26207417 58.39241226 -54.64453125 55.78125 C-52.96842924 54.10448724 -51.29263742 52.42741434 -49.6171875 50.75 C-48.84204803 49.97688477 -48.06690857 49.20376953 -47.26828003 48.40722656 C-43.89754069 45.02202172 -40.63799979 41.6307368 -37.58642578 37.953125 C-36.30614502 36.49132812 -36.30614502 36.49132812 -35 35 C-34.34 35 -33.68 35 -33 35 C-33 34.34 -33 33.68 -33 33 C-32.34 33 -31.68 33 -31 33 C-30.67 32.01 -30.34 31.02 -30 30 C-25.68181818 25.22727273 -25.68181818 25.22727273 -22 24 C-21.32160579 22.67259519 -20.65729787 21.33797673 -20 20 C-18.52684957 18.36471585 -16.99589871 16.78076075 -15.4296875 15.234375 C-14.08583984 13.90019531 -14.08583984 13.90019531 -12.71484375 12.5390625 C-11.77769531 11.61867188 -10.84054687 10.69828125 -9.875 9.75 C-8.92011363 8.80515144 -7.96568141 7.85984367 -7.01171875 6.9140625 C-4.67890913 4.60481662 -2.34155914 2.30036797 0 0 Z " fill="#E2E2E2" transform="translate(1327,691)"/>
<path d="M0 0 C0.33 0.66 0.66 1.32 1 2 C0.22265625 3.9453125 0.22265625 3.9453125 -0.9375 6.125 C-1.31777344 6.84945312 -1.69804688 7.57390625 -2.08984375 8.3203125 C-2.39019531 8.87460937 -2.69054688 9.42890625 -3 10 C-3.66 9.34 -4.32 8.68 -5 8 C-9.95 12.95 -14.9 17.9 -20 23 C-20.66 22.67 -21.32 22.34 -22 22 C-14.74 14.74 -7.48 7.48 0 0 Z " fill="#BABABA" transform="translate(1327,691)"/>
<path d="M0 0 C2.04119788 1.61594832 4.04072937 3.2856382 6 5 C6 5.66 6 6.32 6 7 C2.62496331 5.8141763 0.35277269 4.72426311 -2 2 C-1.34 2 -0.68 2 0 2 C0 1.34 0 0.68 0 0 Z " fill="#B6B6B6" transform="translate(1306,1318)"/>
</svg>
